<svg width="1418" height="1335" viewBox="0 0 1418 1335" fill="none" xmlns="http://www.w3.org/2000/svg">
<path d="M708.983 1334.55C1100.54 1334.55 1417.97 1151.28 1417.97 925.205C1417.97 699.129 1100.54 515.858 708.983 515.858C317.423 515.858 0 699.129 0 925.205C0 1151.28 317.423 1334.55 708.983 1334.55Z" fill="#F5F5F5"/>
<path d="M1176.46 1125.95C1287.54 1125.95 1377.59 1073.95 1377.59 1009.82C1377.59 945.68 1287.54 893.687 1176.46 893.687C1065.37 893.687 975.323 945.68 975.323 1009.82C975.323 1073.95 1065.37 1125.95 1176.46 1125.95Z" fill="#E0E0E0"/>
<path d="M667.431 1072.46L440.534 941.416L699.883 791.689L926.809 922.704L667.431 1072.46Z" fill="#E0E0E0"/>
<path d="M49.5978 1031.93L342.243 1200.89L587.7 1059.2L295.056 890.252L49.5978 1031.93Z" fill="#E0E0E0"/>
<path d="M236.569 252.562L321.632 301.045L462.139 220.411L377.106 171.898L236.569 252.562Z" fill="#E0E0E0"/>
<path d="M322.597 297.369L240.546 250.272C242.678 243.315 242.52 235.858 240.094 228.998L321.632 275.583C321.632 275.583 323.199 280.736 322.597 297.369Z" fill="white"/>
<path d="M317.444 269.044C319.734 270.524 321.642 272.523 323.014 274.879C324.386 277.235 325.182 279.882 325.338 282.604V298.453C325.338 303.455 321.783 305.474 317.444 303.003L236.689 256.479V252.562L316.48 298.062C319.101 299.568 321.21 298.333 321.21 295.35V280.645C321.12 279.012 320.644 277.424 319.821 276.01C318.999 274.596 317.854 273.396 316.48 272.51L236.689 226.859V222.4L317.444 269.044Z" fill="#EBEBEB"/>
<path d="M236.689 222.55L377.106 141.886L457.951 188.29C460.246 189.77 462.159 191.774 463.531 194.136C464.903 196.498 465.696 199.152 465.845 201.879V217.819C465.952 218.794 465.793 219.78 465.385 220.671C464.976 221.562 464.333 222.326 463.525 222.882L323.018 303.546C323.812 302.978 324.441 302.211 324.843 301.322C325.245 300.433 325.406 299.454 325.308 298.484V282.604C325.162 279.88 324.369 277.229 322.997 274.872C321.624 272.514 319.71 270.517 317.414 269.044L236.689 222.55Z" fill="#FAFAFA"/>
<path d="M323.018 274.8C324.451 277.125 325.251 279.784 325.338 282.513V298.393C325.436 299.364 325.275 300.343 324.873 301.232C324.471 302.121 323.842 302.888 323.048 303.455L463.555 222.791C464.364 222.236 465.006 221.472 465.415 220.581C465.823 219.689 465.983 218.704 465.876 217.729V201.879C465.788 199.15 464.988 196.491 463.555 194.166L323.018 274.8Z" fill="#F0F0F0"/>
<path d="M150.089 131.882L149.275 142.609L244.252 193.563L246.392 187.295L150.089 131.882Z" fill="#EBEBEB"/>
<path d="M245.126 189.796L153.132 136.703L137.132 145.924L230.934 200.795L245.126 189.796Z" fill="white"/>
<path d="M213.668 195.1L204.628 301.708C204.673 302.911 205.005 304.087 205.598 305.135C206.19 306.184 207.025 307.075 208.033 307.734L261.398 338.62C262.249 339.091 263.198 339.359 264.17 339.403L231.024 204.38C230.058 204.327 229.113 204.071 228.252 203.627L224.425 201.397L213.668 195.1Z" fill="#E0E0E0"/>
<path d="M235.002 203.506L244.524 195.341L251.484 189.314C252.207 188.169 253.051 187.325 252.599 186.301L285.323 320.329C285.775 321.264 285.895 323.343 284.6 324.126L268.117 338.228C266.87 338.889 265.453 339.162 264.049 339.011L230.904 203.989C232.288 204.227 233.711 204.06 235.002 203.506Z" fill="#F0F0F0"/>
<path d="M251.514 185.427C253.383 186.512 252.931 187.717 251.514 189.344L235.002 203.476C233.951 204.026 232.783 204.312 231.597 204.312C230.411 204.312 229.243 204.026 228.192 203.476L213.668 195.1C211.77 194.015 211.438 192.448 212.915 191.604C213.885 191.211 214.932 191.044 215.977 191.117C217.021 191.19 218.035 191.501 218.941 192.026L230.392 198.655C230.742 198.833 231.129 198.925 231.522 198.925C231.914 198.925 232.301 198.833 232.652 198.655L244.704 188.169C245.337 187.808 245.337 187.235 244.704 186.873L150.089 131.882L154.609 129.26L251.514 185.427Z" fill="#FAFAFA"/>
<path d="M122.669 137.035L213.156 189.284V361.46L122.669 309.181V137.035Z" fill="#EBEBEB"/>
<path d="M210.233 192.147L122.669 141.886C117.313 147.564 110.3 151.403 102.631 152.854L189.472 202.904C189.472 202.904 195.077 201.578 210.233 192.147Z" fill="white"/>
<path d="M181.065 202.753C183.675 204.06 186.553 204.741 189.472 204.741C192.391 204.741 195.269 204.06 197.879 202.753L212.583 194.135C217.224 191.454 217.224 187.145 212.583 184.463L126.315 134.925L122.669 137.035L207.551 186.06C208.177 186.242 208.727 186.623 209.118 187.145C209.509 187.666 209.721 188.301 209.721 188.953C209.721 189.605 209.509 190.239 209.118 190.761C208.727 191.282 208.177 191.663 207.551 191.845L193.841 199.74C192.275 200.527 190.547 200.937 188.794 200.937C187.041 200.937 185.313 200.527 183.747 199.74L98.8942 150.685L94.736 153.065L181.065 202.753Z" fill="#FAFAFA"/>
<path d="M94.7661 153.065V325.211L181.065 374.748C183.675 376.056 186.553 376.736 189.472 376.736C192.391 376.736 195.269 376.056 197.879 374.748L212.644 366.281C213.603 365.858 214.432 365.184 215.041 364.331C215.651 363.477 216.02 362.475 216.109 361.43V189.284C216.015 190.332 215.638 191.335 215.016 192.185C214.395 193.034 213.554 193.698 212.583 194.105L197.879 202.753C195.269 204.06 192.391 204.741 189.472 204.741C186.553 204.741 183.675 204.06 181.065 202.753L94.7661 153.065Z" fill="#EBEBEB"/>
<path d="M189.472 204.591C192.397 204.649 195.289 203.965 197.879 202.603L212.583 194.105C213.543 193.69 214.371 193.022 214.982 192.173C215.592 191.324 215.96 190.326 216.049 189.284V361.43C215.959 362.475 215.591 363.477 214.981 364.331C214.371 365.184 213.543 365.858 212.583 366.281L197.819 374.748C195.229 376.111 192.337 376.795 189.412 376.737L189.472 204.591Z" fill="#F0F0F0"/>
<path d="M916.384 829.505C915.932 821.882 914.907 812.752 913.672 802.145C909.062 761.888 902.764 706.746 919.457 653.924C929.612 621.773 954.079 583.656 992.287 573.079C1000.78 570.729 1021.33 567.264 1029.23 585.494C1030.34 588.127 1031 590.928 1031.19 593.78C1032 605.351 1026.79 615.566 1021 624.877C1014.34 635.694 1006.63 645.969 999.157 655.973C992.106 665.435 984.784 675.197 978.396 685.322C971.497 696.323 965.452 707.837 960.317 719.763L957.876 718.709C963.002 706.662 969.046 695.026 975.955 683.906C982.373 673.691 989.726 663.868 996.837 654.376C1004.25 644.432 1011.9 634.187 1018.53 623.49C1024.08 614.451 1029.08 604.778 1028.33 593.961C1028.16 591.41 1027.57 588.904 1026.58 586.548C1019.53 570.247 1000.6 573.501 992.799 575.64C955.616 585.946 931.721 623.249 921.777 654.708C905.265 707.017 911.532 761.828 916.112 801.844C917.318 812.48 918.372 821.671 918.824 829.354L916.384 829.505Z" fill="#27AE60"/>
<path d="M919.095 873.317C918.896 873.346 918.693 873.346 918.493 873.317C917.914 873.205 917.37 872.958 916.905 872.597C916.439 872.236 916.064 871.77 915.811 871.238C915.285 869.746 915.285 868.12 915.811 866.628C916.236 863.741 916.236 860.807 915.811 857.92C915.811 856.293 915.54 854.575 915.54 853.038V834.326C917.946 800.713 927.796 768.055 944.376 738.716C959.081 713.134 975.352 696.109 995.601 685.081C1006.52 679.083 1018.49 675.246 1030.86 673.781C1041.78 672.575 1052.75 675.475 1061.65 681.917C1070.84 689.179 1074.97 701.623 1071.5 711.477C1069.06 718.377 1063.49 723.53 1057.79 728.2C1047.64 736.487 1036.55 743.899 1025.85 751.071C1016.97 757.097 1007.77 763.124 999.187 769.753C972.914 790.031 950.873 815.266 934.312 844.029C931.6 848.699 929.039 853.52 926.689 858.342L925.725 860.24C924.785 861.961 923.959 863.743 923.254 865.573C923.103 865.965 922.952 866.779 922.741 867.713C922.588 869.431 922.042 871.091 921.144 872.564C920.58 873.062 919.849 873.331 919.095 873.317ZM1035.2 676.282C1033.84 676.282 1032.48 676.282 1031.1 676.463C1019.09 677.863 1007.48 681.589 996.897 687.431C977.13 698.188 961.19 714.912 946.727 740.042C930.369 769.017 920.643 801.26 918.252 834.447V852.978C918.252 854.424 918.252 855.991 918.523 857.649C919.008 860.804 919.008 864.015 918.523 867.17C918.199 868.149 918.199 869.205 918.523 870.184C918.6 870.336 918.711 870.469 918.846 870.574C918.982 870.678 919.139 870.751 919.306 870.786C919.844 869.673 920.21 868.484 920.391 867.261C920.535 866.424 920.736 865.599 920.994 864.79C921.729 862.855 922.594 860.972 923.585 859.155L924.519 857.287C926.93 852.406 929.521 847.554 932.233 842.823C937.866 833.073 944.116 823.693 950.945 814.74C964.445 797.102 980.198 781.309 997.801 767.764C1006.48 761.135 1015.7 754.958 1024.62 748.991C1035.29 741.85 1046.28 734.468 1056.38 726.272C1061.74 721.902 1067.01 716.991 1069.24 710.723C1072.26 701.895 1068.55 690.716 1060.21 684.117C1053 678.744 1044.18 675.981 1035.2 676.282Z" fill="#27AE60"/>
<path d="M916.836 847.585H916.504C916.334 847.546 916.174 847.473 916.033 847.371C915.892 847.269 915.773 847.14 915.683 846.991C915.593 846.842 915.534 846.676 915.509 846.504C915.485 846.331 915.495 846.156 915.54 845.988C940.399 746.852 1009.13 702.618 1045.83 692.102C1046.17 692.009 1046.53 692.051 1046.83 692.22C1047.14 692.389 1047.36 692.672 1047.46 693.006C1047.55 693.345 1047.51 693.708 1047.34 694.018C1047.17 694.327 1046.89 694.559 1046.56 694.663C1010.4 704.999 942.689 748.66 918.131 846.62C918.047 846.899 917.876 847.143 917.643 847.316C917.41 847.49 917.127 847.584 916.836 847.585Z" fill="#27AE60"/>
<path d="M916.685 766.227C916.33 766.197 916.002 766.028 915.771 765.757C915.54 765.487 915.424 765.136 915.45 764.781C923.374 657.721 993.402 599.053 1001.36 592.756C1001.49 592.642 1001.65 592.558 1001.82 592.507C1001.98 592.456 1002.16 592.44 1002.34 592.46C1002.51 592.479 1002.68 592.534 1002.83 592.622C1002.99 592.709 1003.12 592.826 1003.22 592.967C1003.33 593.103 1003.42 593.259 1003.46 593.427C1003.51 593.595 1003.53 593.771 1003.51 593.944C1003.49 594.118 1003.43 594.286 1003.35 594.439C1003.26 594.592 1003.15 594.726 1003.01 594.835C995.149 601.072 925.936 659.047 918.131 764.992C918.093 765.343 917.922 765.667 917.653 765.897C917.385 766.126 917.038 766.245 916.685 766.227Z" fill="#27AE60"/>
<path d="M908.338 392.858L740.773 296.163C739.477 295.233 737.958 294.662 736.371 294.509C734.783 294.355 733.183 294.625 731.733 295.289L719.68 302.25C718.355 303.173 717.301 304.433 716.628 305.901C715.955 307.369 715.687 308.99 715.853 310.597V769.24C716.099 773.709 717.395 778.057 719.636 781.931C721.877 785.805 724.999 789.097 728.75 791.538L896.285 888.112C897.578 889.048 899.096 889.624 900.684 889.782C902.271 889.941 903.873 889.677 905.325 889.016L917.378 882.026C918.687 881.098 919.726 879.839 920.388 878.378C921.05 876.916 921.311 875.305 921.145 873.709V415.156C920.911 410.695 919.63 406.351 917.405 402.477C915.18 398.603 912.074 395.308 908.338 392.858Z" fill="#263238"/>
<path d="M751.952 777.105L739.899 784.066V822.213C739.96 823.33 740.284 824.418 740.844 825.386C741.404 826.355 742.185 827.178 743.123 827.788L748.758 831.042C749.757 831.548 750.862 831.811 751.982 831.811C753.102 831.811 754.206 831.548 755.206 831.042L760.841 827.788C762.843 826.494 764.391 824.609 765.27 822.394L776.148 791.056L751.952 777.105Z" fill="#263238"/>
<path d="M739.899 822.213C739.96 823.33 740.284 824.418 740.844 825.386C741.404 826.355 742.185 827.178 743.123 827.788L748.758 831.042C749.147 831.278 749.585 831.422 750.038 831.464C750.491 831.507 750.948 831.446 751.374 831.286C751.8 831.127 752.185 830.873 752.499 830.544C752.813 830.214 753.048 829.818 753.187 829.385L764.005 798.017L739.899 784.066V822.213Z" fill="#37474F"/>
<path d="M872.842 846.68L860.79 853.671V891.788C860.845 892.908 861.163 893.998 861.718 894.972C862.273 895.946 863.049 896.775 863.984 897.393L869.648 900.647C870.643 901.153 871.742 901.416 872.858 901.416C873.973 901.416 875.072 901.153 876.067 900.647L881.732 897.393C883.733 896.1 885.282 894.214 886.161 891.999L897.009 860.632L872.842 846.68Z" fill="#263238"/>
<path d="M860.79 891.789C860.845 892.908 861.163 893.998 861.718 894.972C862.273 895.946 863.049 896.775 863.984 897.393L869.648 900.647C870.038 900.883 870.475 901.028 870.928 901.07C871.382 901.112 871.838 901.051 872.265 900.892C872.691 900.732 873.075 900.478 873.389 900.149C873.703 899.82 873.939 899.423 874.078 898.99L884.956 867.622L860.85 853.671L860.79 891.789Z" fill="#37474F"/>
<path d="M729.533 303.485L897.069 399.909C900.82 402.357 903.942 405.654 906.183 409.533C908.423 413.412 909.719 417.764 909.965 422.237V880.881C910.284 882.491 910.091 884.162 909.412 885.657C908.733 887.152 907.604 888.398 906.181 889.219C904.759 890.039 903.116 890.394 901.481 890.234C899.847 890.073 898.304 889.405 897.069 888.323L729.533 791.719C725.786 789.276 722.669 785.983 720.433 782.109C718.198 778.235 716.907 773.888 716.667 769.421V310.898C716.345 309.29 716.535 307.621 717.212 306.127C717.888 304.633 719.016 303.389 720.438 302.57C721.859 301.752 723.501 301.399 725.133 301.564C726.765 301.728 728.304 302.4 729.533 303.485Z" fill="#37474F"/>
<path d="M486.245 930.388L667.461 1035.01L921.175 888.534L909.092 881.543L727.876 776.924L486.245 916.437V930.388Z" fill="#455A64"/>
<path d="M667.461 1035.01V1021.06L921.175 874.583V888.534L667.461 1035.01Z" fill="#263238"/>
<path d="M668.606 1014.7L666.768 1013.46C698.919 964.799 698.708 880.73 696.086 859.637C695.875 858.221 695.725 857.347 695.695 857.016L697.894 856.654C697.894 857.317 698.135 858.101 698.256 859.035C700.606 873.95 713.895 954.976 729.624 979.564L727.755 980.769C715.311 961.454 704.674 909.326 699.341 879.254C699.672 913.393 694.7 975.436 668.606 1014.7Z" fill="#FAFAFA"/>
<path d="M774.43 940.392C771.688 939.578 707.627 920.173 701.721 891.909L703.921 891.457C709.525 918.425 774.4 938.072 775.063 938.283L774.43 940.392Z" fill="#FAFAFA"/>
<path d="M709.766 928.942L708.139 922.041C707.916 920.774 707.271 919.619 706.308 918.766C705.345 917.912 704.121 917.41 702.836 917.341C701.775 917.186 700.692 917.359 699.733 917.839C698.774 918.319 697.985 919.081 697.472 920.022L695.393 919.149C696.091 917.77 697.198 916.642 698.564 915.919C699.929 915.195 701.485 914.913 703.017 915.111C704.125 915.181 705.207 915.485 706.188 916.005C707.17 916.524 708.03 917.247 708.712 918.124C709.073 915.267 710.532 912.663 712.78 910.862C713.632 910.417 714.585 910.199 715.545 910.231C716.506 910.263 717.443 910.542 718.264 911.043L717.269 913.032C716.767 912.709 716.19 912.52 715.594 912.483C714.998 912.446 714.403 912.562 713.864 912.821C711.303 914.267 710.309 919.842 710.158 921.86L709.766 928.942Z" fill="#FAFAFA"/>
<path d="M716.064 951.933L714.075 945.665C711.815 938.584 708.049 934.516 703.589 934.245C701.726 934.209 699.893 934.717 698.314 935.707C696.735 936.697 695.479 938.126 694.7 939.819L692.681 938.855C693.635 936.74 695.194 934.954 697.163 933.726C699.132 932.498 701.421 931.881 703.74 931.955C706.422 932.105 711.032 933.552 714.467 940.543C715.22 935.028 717.48 926.169 723.296 922.463C725.383 921.319 727.73 920.732 730.11 920.759C732.491 920.785 734.824 921.424 736.885 922.614L735.951 924.633C734.225 923.612 732.266 923.051 730.262 923.003C728.257 922.956 726.274 923.423 724.501 924.362C716.757 929.183 716.245 945.123 716.245 945.303L716.064 951.933Z" fill="#FAFAFA"/>
<path d="M688.855 967.24L686.866 966.215C691.325 957.628 701.118 951.451 709.616 951.872C711.418 951.893 713.193 952.319 714.81 953.116C716.427 953.914 717.844 955.065 718.957 956.483C719.775 952.147 721.462 948.022 723.916 944.355C726.371 940.689 729.542 937.557 733.24 935.149C737.207 932.514 741.785 930.944 746.535 930.59C751.284 930.237 756.045 931.111 760.359 933.13L759.485 935.149C755.511 933.309 751.134 932.516 746.767 932.842C742.401 933.169 738.19 934.606 734.535 937.017C730.627 939.55 727.365 942.962 725.011 946.98C722.657 950.998 721.275 955.511 720.976 960.159V965.854L718.866 960.551C718.168 958.665 716.911 957.038 715.263 955.886C713.616 954.734 711.656 954.112 709.646 954.102C701.842 953.711 692.953 959.375 688.855 967.24Z" fill="#FAFAFA"/>
<path d="M676.621 1000.51L674.662 999.421C677.374 994.48 691.808 969.65 708.893 965.161C711.304 964.47 713.834 964.298 716.317 964.656C718.8 965.015 721.178 965.895 723.296 967.24L722.151 969.138C720.284 967.958 718.189 967.185 716.004 966.868C713.818 966.552 711.59 966.699 709.465 967.3C696.93 970.615 683.973 987.248 676.621 1000.51Z" fill="#FAFAFA"/>
<path d="M897.009 735.07V749.022L667.461 881.544L486.245 776.924V762.973L715.793 630.451L897.009 735.07Z" fill="#263238"/>
<path d="M897.009 735.07L667.461 867.592L486.245 762.973L715.793 630.451L897.009 735.07Z" fill="#455A64"/>
<path d="M897.009 581.637V595.558L667.461 728.11L486.245 623.46V609.539L715.793 476.987L897.009 581.637Z" fill="#263238"/>
<path d="M897.009 581.637L667.461 714.159L486.245 609.539L715.793 476.987L897.009 581.637Z" fill="#455A64"/>
<path d="M666.677 532.189L499.142 435.615C497.849 434.68 496.331 434.104 494.744 433.945C493.156 433.787 491.554 434.051 490.102 434.711C487.932 435.947 480.219 440.437 478.049 441.672C476.729 442.598 475.681 443.861 475.014 445.328C474.346 446.796 474.083 448.415 474.252 450.019V908.542C474.498 913.011 475.794 917.358 478.035 921.233C480.276 925.107 483.398 928.398 487.149 930.84L654.685 1027.44C655.978 1028.38 657.495 1028.96 659.083 1029.11C660.67 1029.27 662.272 1029.01 663.724 1028.35C665.894 1027.08 673.668 1022.62 675.777 1021.33C677.103 1020.41 678.16 1019.16 678.838 1017.69C679.516 1016.23 679.791 1014.61 679.634 1013.01V554.518C679.386 550.038 678.083 545.681 675.831 541.801C673.58 537.921 670.443 534.627 666.677 532.189Z" fill="#263238"/>
<path opacity="0.2" d="M667.461 602.579L679.574 595.588V553.704L667.431 560.695L667.461 602.579Z" fill="black"/>
<path opacity="0.2" d="M909.122 463.066L921.235 456.105V414.222L909.092 421.212L909.122 463.066Z" fill="black"/>
<path d="M510.411 916.437L498.358 923.397V961.545C498.419 962.662 498.743 963.749 499.303 964.718C499.863 965.687 500.644 966.509 501.582 967.119L507.217 970.374C508.217 970.879 509.321 971.143 510.441 971.143C511.561 971.143 512.666 970.879 513.665 970.374L519.3 967.119C521.294 965.831 522.842 963.958 523.73 961.756L534.607 930.388L510.411 916.437Z" fill="#263238"/>
<path d="M498.328 961.545C498.389 962.662 498.713 963.749 499.273 964.718C499.833 965.686 500.614 966.509 501.552 967.119L507.187 970.373C507.576 970.609 508.014 970.754 508.467 970.796C508.92 970.838 509.377 970.777 509.803 970.618C510.229 970.458 510.614 970.204 510.928 969.875C511.242 969.546 511.477 969.15 511.616 968.716L522.494 937.348L498.388 923.397L498.328 961.545Z" fill="#37474F"/>
<path d="M631.211 986.193L619.159 993.153V1031.3C619.214 1032.42 619.532 1033.5 620.087 1034.47C620.642 1035.44 621.418 1036.26 622.353 1036.88L628.017 1040.13C629.012 1040.64 630.111 1040.9 631.227 1040.9C632.342 1040.9 633.441 1040.64 634.436 1040.13L640.101 1036.88C642.087 1035.58 643.632 1033.71 644.53 1031.51L655.378 1000.14L631.211 986.193Z" fill="#263238"/>
<path d="M619.159 1031.15C619.214 1032.27 619.532 1033.35 620.087 1034.32C620.642 1035.29 621.418 1036.11 622.353 1036.72L628.017 1039.98C628.407 1040.21 628.844 1040.36 629.298 1040.4C629.751 1040.44 630.207 1040.38 630.634 1040.22C631.06 1040.06 631.444 1039.81 631.758 1039.48C632.073 1039.15 632.308 1038.76 632.447 1038.32L643.295 1006.95L619.189 993.003L619.159 1031.15Z" fill="#37474F"/>
<path d="M487.028 442.606L654.594 539.18C658.342 541.63 661.459 544.928 663.695 548.807C665.93 552.686 667.22 557.038 667.461 561.508V1035.01C667.461 1035.01 658.15 1029.49 654.594 1027.44L487.059 930.84C483.308 928.398 480.186 925.107 477.945 921.233C475.704 917.359 474.408 913.011 474.162 908.542V450.019C473.84 448.411 474.03 446.742 474.707 445.248C475.383 443.754 476.512 442.51 477.933 441.691C479.354 440.872 480.996 440.52 482.628 440.685C484.26 440.849 485.799 441.521 487.028 442.606Z" fill="#37474F"/>
<path opacity="0.2" d="M654.594 539.18L487.028 442.606C485.799 441.521 484.26 440.849 482.628 440.685C480.996 440.52 479.354 440.872 477.933 441.691C476.512 442.51 475.383 443.754 474.707 445.248C474.03 446.742 473.84 448.411 474.162 450.019V490.969L667.461 602.458V561.508C667.22 557.038 665.93 552.686 663.695 548.807C661.459 544.928 658.342 541.63 654.594 539.18Z" fill="black"/>
<path d="M884.926 582.752C884.632 582.744 884.353 582.624 884.146 582.417C883.938 582.209 883.818 581.93 883.811 581.637V444.053L752.584 519.805C752.462 519.885 752.324 519.938 752.179 519.962C752.034 519.985 751.887 519.978 751.745 519.941C751.603 519.904 751.471 519.838 751.356 519.748C751.241 519.657 751.146 519.543 751.078 519.413C751.002 519.287 750.952 519.147 750.93 519.001C750.909 518.855 750.916 518.706 750.953 518.563C750.989 518.42 751.054 518.286 751.142 518.168C751.231 518.05 751.342 517.951 751.47 517.877L884.534 441.16C884.701 441.056 884.894 441 885.091 441C885.288 441 885.481 441.056 885.649 441.16C885.815 441.259 885.953 441.401 886.048 441.57C886.143 441.739 886.192 441.93 886.191 442.124V581.637C886.192 581.797 886.16 581.955 886.094 582.101C886.029 582.247 885.933 582.378 885.813 582.483C885.693 582.589 885.552 582.668 885.399 582.714C885.245 582.76 885.084 582.773 884.926 582.752Z" fill="#FAFAFA"/>
<path d="M860.759 547.858H860.428C860.141 547.794 859.891 547.618 859.733 547.369C859.575 547.121 859.521 546.82 859.584 546.533L882.063 449.175L837.467 526.404C837.398 526.533 837.304 526.646 837.19 526.738C837.076 526.829 836.944 526.897 836.804 526.936C836.663 526.975 836.516 526.986 836.371 526.967C836.226 526.948 836.086 526.9 835.961 526.826C835.831 526.754 835.717 526.657 835.625 526.54C835.533 526.423 835.466 526.289 835.426 526.146C835.387 526.003 835.377 525.854 835.396 525.706C835.415 525.559 835.464 525.417 835.539 525.289L883.75 441.582C883.888 441.352 884.103 441.178 884.356 441.089C884.609 441.001 884.886 441.005 885.137 441.1C885.384 441.2 885.587 441.387 885.708 441.624C885.83 441.862 885.862 442.136 885.799 442.395L861.694 547.045C861.64 547.26 861.521 547.453 861.354 547.598C861.187 547.743 860.98 547.834 860.759 547.858Z" fill="#FAFAFA"/>
<path d="M812.457 513.116C812.304 513.117 812.152 513.085 812.012 513.022C811.872 512.96 811.746 512.869 811.644 512.754C811.438 512.546 811.322 512.264 811.322 511.971C811.322 511.678 811.438 511.396 811.644 511.187L884.142 441.431C884.351 441.225 884.632 441.109 884.926 441.109C885.219 441.109 885.5 441.225 885.709 441.431C885.917 441.645 886.033 441.931 886.033 442.23C886.033 442.528 885.917 442.814 885.709 443.028L813.211 512.754C813.115 512.861 813 512.948 812.87 513.011C812.741 513.073 812.601 513.108 812.457 513.116Z" fill="#FAFAFA"/>
<path d="M884.926 560.484C884.632 560.476 884.353 560.356 884.146 560.149C883.938 559.941 883.818 559.662 883.811 559.369C883.811 541.109 863.441 539.873 862.567 539.843C862.403 539.831 862.243 539.785 862.097 539.707C861.952 539.629 861.825 539.521 861.724 539.391C861.629 539.263 861.564 539.116 861.532 538.959C861.501 538.803 861.505 538.642 861.543 538.487C862.286 534.757 862.034 530.897 860.812 527.294C859.59 523.692 857.442 520.475 854.582 517.967C853.537 516.924 852.281 516.116 850.899 515.597C849.517 515.077 848.04 514.858 846.567 514.954C845.781 515.087 845.033 515.387 844.372 515.834C843.712 516.281 843.156 516.865 842.74 517.545C842.615 517.765 842.418 517.936 842.182 518.029C841.947 518.122 841.687 518.132 841.445 518.057C841.204 517.983 840.995 517.83 840.853 517.622C840.711 517.414 840.643 517.164 840.661 516.912C840.661 516.219 841.897 499.978 827.614 498.381C827.43 498.359 827.255 498.292 827.103 498.187C826.951 498.082 826.826 497.942 826.74 497.778C826.658 497.62 826.615 497.444 826.615 497.266C826.615 497.088 826.658 496.912 826.74 496.754C826.74 496.754 833.068 484.912 830.627 479.096C830.345 478.414 829.907 477.807 829.346 477.325C828.786 476.843 828.12 476.5 827.403 476.324C827.26 476.286 827.127 476.22 827.01 476.129C826.894 476.037 826.798 475.923 826.727 475.794C826.657 475.664 826.614 475.521 826.6 475.374C826.587 475.227 826.604 475.079 826.65 474.938C826.74 474.659 826.934 474.425 827.192 474.285C827.45 474.145 827.752 474.109 828.036 474.185C829.074 474.452 830.035 474.959 830.841 475.666C831.647 476.372 832.275 477.258 832.676 478.253C834.996 483.767 831.079 492.897 829.392 496.332C840.48 498.471 842.529 508.927 842.831 514.11C843.822 513.406 844.952 512.924 846.145 512.694C847.956 512.519 849.784 512.755 851.49 513.387C853.197 514.018 854.738 515.028 855.999 516.34C858.993 518.98 861.284 522.323 862.667 526.067C864.05 529.812 864.482 533.842 863.923 537.794C868.805 538.427 886.04 541.832 886.01 559.429C885.995 559.709 885.875 559.973 885.674 560.169C885.473 560.364 885.206 560.477 884.926 560.484Z" fill="#FAFAFA"/>
<path d="M884.926 530.412C884.645 530.413 884.374 530.308 884.167 530.118C883.961 529.928 883.833 529.667 883.811 529.387C883.329 522.999 879.622 514.743 874.952 512.694C874.026 512.281 873 512.146 872 512.306C870.999 512.467 870.067 512.916 869.317 513.598C869.133 513.716 868.918 513.779 868.699 513.779C868.48 513.779 868.266 513.716 868.082 513.598C867.891 513.493 867.735 513.334 867.633 513.141C867.531 512.949 867.488 512.73 867.509 512.513C867.509 512.513 868.503 501.214 863.411 496.543C862.306 495.621 860.997 494.975 859.592 494.661C858.188 494.346 856.728 494.372 855.336 494.735C855.144 494.776 854.944 494.764 854.758 494.7C854.573 494.636 854.408 494.524 854.281 494.373C854.152 494.222 854.065 494.04 854.028 493.844C853.991 493.649 854.005 493.447 854.07 493.259C855.095 490.456 857.083 482.592 854.402 479.789C853.136 478.494 850.816 478.373 847.471 479.458C847.243 479.534 846.996 479.533 846.768 479.457C846.54 479.381 846.343 479.234 846.206 479.036C846.068 478.842 845.994 478.611 845.994 478.373C845.994 478.136 846.068 477.904 846.206 477.71C848.074 475.36 852.684 468.49 851.539 465.205C851.35 464.752 851.044 464.356 850.652 464.06C850.261 463.763 849.797 463.576 849.309 463.518C849.166 463.483 849.032 463.42 848.914 463.332C848.796 463.245 848.696 463.135 848.62 463.009C848.545 462.883 848.495 462.744 848.473 462.598C848.452 462.453 848.46 462.305 848.496 462.162C848.523 462.018 848.581 461.882 848.664 461.762C848.747 461.642 848.855 461.54 848.979 461.463C849.104 461.387 849.243 461.337 849.388 461.317C849.533 461.298 849.681 461.308 849.821 461.349C850.667 461.472 851.466 461.815 852.137 462.344C852.809 462.873 853.33 463.568 853.648 464.362C854.884 467.947 851.87 473.401 849.761 476.415C850.848 476.156 851.981 476.167 853.062 476.445C854.144 476.723 855.141 477.261 855.968 478.012C859.283 481.447 857.686 488.709 856.692 492.114C858.161 491.938 859.651 492.075 861.064 492.517C862.476 492.958 863.78 493.694 864.888 494.675C869.377 498.773 869.859 506.728 869.799 510.374C870.742 509.93 871.771 509.701 872.812 509.701C873.854 509.701 874.883 509.93 875.826 510.374C881.521 512.875 885.468 521.764 886.04 528.965C886.053 529.11 886.036 529.256 885.991 529.394C885.945 529.533 885.873 529.66 885.777 529.77C885.682 529.88 885.565 529.969 885.434 530.033C885.303 530.096 885.161 530.133 885.016 530.141L884.926 530.412Z" fill="#FAFAFA"/>
<path d="M949.831 393.31C949.688 391.71 949.121 390.177 948.189 388.869C947.257 387.561 945.993 386.525 944.527 385.867L764.909 282.152C760.915 280.131 756.502 279.079 752.027 279.079C747.552 279.079 743.139 280.131 739.146 282.152L462.893 441.672C461.427 442.33 460.163 443.366 459.231 444.674C458.299 445.982 457.732 447.515 457.589 449.115V463.066C457.732 464.666 458.299 466.199 459.231 467.507C460.163 468.815 461.427 469.851 462.893 470.509L642.511 574.194C646.5 576.228 650.915 577.289 655.393 577.289C659.871 577.289 664.285 576.228 668.274 574.194L944.527 414.704C945.993 414.046 947.257 413.01 948.189 411.702C949.121 410.394 949.688 408.861 949.831 407.261V393.31Z" fill="#37474F"/>
<path d="M642.511 560.243L462.893 456.558C455.781 452.429 455.781 445.77 462.893 441.672L739.145 282.152C743.139 280.131 747.552 279.079 752.027 279.079C756.502 279.079 760.915 280.131 764.909 282.152L944.527 385.867C951.669 389.995 951.669 396.624 944.527 400.753L668.274 560.243C664.285 562.277 659.871 563.338 655.393 563.338C650.915 563.338 646.5 562.277 642.511 560.243Z" fill="#455A64"/>
<path opacity="0.1" d="M909.092 435.133L824.54 539.783L679.574 623.49L679.544 567.685L909.092 435.133Z" fill="black"/>
<path opacity="0.1" d="M897.009 595.558L824.54 693.217L679.574 776.954V721.119L897.009 595.558Z" fill="black"/>
<path opacity="0.1" d="M897.009 749.022L824.54 846.681L679.574 930.418V874.583L897.009 749.022Z" fill="black"/>
<path d="M564.469 1053.81L342.213 1182.14L91.9337 1037.3L314.19 908.994L564.469 1053.81Z" fill="#27AE60"/>
<path opacity="0.5" d="M564.469 1053.81L342.213 1182.14L91.9337 1037.3L314.19 908.994L564.469 1053.81Z" fill="black"/>
<path d="M314.19 735.04V908.994L91.9337 1037.3V863.374L314.19 735.04Z" fill="#27AE60"/>
<path opacity="0.23" d="M314.19 735.04V908.994L91.9337 1037.3V863.374L314.19 735.04Z" fill="black"/>
<path d="M342.213 1008.19V1182.14L91.9337 1037.3V863.374L342.213 1008.19Z" fill="#27AE60"/>
<path opacity="0.38" d="M342.213 1008.19V1182.14L91.9337 1037.3V863.374L342.213 1008.19Z" fill="black"/>
<path d="M564.468 879.856V1053.81L314.19 908.994V735.04L564.468 879.856Z" fill="#27AE60"/>
<path opacity="0.4" d="M564.468 879.856V1053.81L314.19 908.994V735.04L564.468 879.856Z" fill="black"/>
<path d="M564.468 1053.81V879.856L342.213 1008.19V1182.14L564.468 1053.81Z" fill="#27AE60"/>
<path opacity="0.23" d="M564.468 1053.81V879.856L342.213 1008.19V1182.14L564.468 1053.81Z" fill="black"/>
<path d="M314.19 735.04L314.491 638.738L564.167 783.734L564.468 879.856L314.19 735.04Z" fill="#27AE60"/>
<path opacity="0.2" d="M314.19 735.04L314.491 638.738L564.167 783.734L564.468 879.856L314.19 735.04Z" fill="black"/>
<path d="M342.213 1008.19L363.064 923.94L583.301 796.781L564.469 879.856L342.213 1008.19Z" fill="#27AE60"/>
<path opacity="0.3" d="M342.213 1008.19L363.064 923.94L583.301 796.781L564.469 879.856L342.213 1008.19Z" fill="black"/>
<path d="M91.9337 863.374L65.4172 775.99L287.673 647.687L314.19 735.04L91.9337 863.374Z" fill="#27AE60"/>
<path opacity="0.1" d="M91.9337 863.374L65.4172 775.99L287.673 647.687L314.19 735.04L91.9337 863.374Z" fill="black"/>
<path d="M91.9337 863.374L39.624 791.147L289.933 935.963L342.213 1008.19L91.9337 863.374Z" fill="#27AE60"/>
<path opacity="0.45" d="M91.9337 863.374L39.624 791.147L289.933 935.963L342.213 1008.19L91.9337 863.374Z" fill="black"/>
<g opacity="0.7">
<path d="M407.66 1130.41C407.298 1130.41 406.949 1130.26 406.69 1130.01C406.431 1129.76 406.282 1129.41 406.274 1129.05V1098.44C406.282 1098.07 406.43 1097.72 406.688 1097.46C406.947 1097.21 407.295 1097.06 407.66 1097.05C408.022 1097.06 408.367 1097.21 408.621 1097.47C408.874 1097.73 409.016 1098.07 409.016 1098.44V1129.05C409.016 1129.41 408.873 1129.76 408.619 1130.01C408.365 1130.26 408.02 1130.41 407.66 1130.41Z" fill="white"/>
<path d="M403.652 1109.04C403.473 1109.07 403.29 1109.07 403.11 1109.04C402.781 1108.89 402.523 1108.62 402.388 1108.28C402.254 1107.95 402.253 1107.57 402.387 1107.23L407.268 1096L412.692 1102.26C412.886 1102.54 412.97 1102.89 412.927 1103.22C412.885 1103.56 412.719 1103.87 412.462 1104.1C412.204 1104.32 411.873 1104.44 411.532 1104.44C411.191 1104.43 410.864 1104.3 410.613 1104.07L408.052 1101.06L405.038 1108.29C404.908 1108.54 404.707 1108.74 404.46 1108.88C404.213 1109.01 403.932 1109.07 403.652 1109.04Z" fill="white"/>
<path d="M420.285 1123.2C419.923 1123.2 419.578 1123.05 419.325 1122.79C419.071 1122.53 418.929 1122.18 418.929 1121.82V1091.23C418.929 1090.87 419.072 1090.53 419.327 1090.28C419.581 1090.02 419.926 1089.88 420.285 1089.88C420.645 1089.88 420.99 1090.02 421.244 1090.28C421.499 1090.53 421.641 1090.87 421.641 1091.23V1121.79C421.645 1121.97 421.613 1122.15 421.547 1122.32C421.482 1122.49 421.383 1122.65 421.257 1122.78C421.131 1122.91 420.98 1123.01 420.814 1123.09C420.647 1123.16 420.467 1123.2 420.285 1123.2Z" fill="white"/>
<path d="M416.278 1101.84C416.098 1101.87 415.915 1101.87 415.735 1101.84C415.57 1101.77 415.421 1101.67 415.296 1101.53C415.171 1101.4 415.074 1101.25 415.009 1101.08C414.945 1100.91 414.914 1100.73 414.92 1100.55C414.926 1100.37 414.967 1100.2 415.042 1100.03L419.894 1088.64L425.317 1094.88C425.568 1095.14 425.708 1095.48 425.708 1095.84C425.708 1096.2 425.568 1096.55 425.317 1096.81C425.191 1096.94 425.041 1097.04 424.876 1097.11C424.71 1097.18 424.533 1097.21 424.353 1097.21C424.174 1097.21 423.996 1097.18 423.831 1097.11C423.665 1097.04 423.515 1096.94 423.389 1096.81L420.828 1093.8L417.815 1101.03C417.69 1101.32 417.469 1101.56 417.19 1101.71C416.91 1101.85 416.588 1101.9 416.278 1101.84Z" fill="white"/>
</g>
<g opacity="0.7">
<path d="M371.23 1151.17C370.715 1151.18 370.207 1151.05 369.754 1150.81C369.209 1150.46 368.768 1149.97 368.476 1149.39C368.185 1148.81 368.053 1148.17 368.096 1147.52V1143.76C368.104 1143.39 368.254 1143.05 368.513 1142.79C368.772 1142.54 369.12 1142.4 369.482 1142.4C369.842 1142.4 370.187 1142.54 370.441 1142.8C370.696 1143.05 370.838 1143.4 370.838 1143.76V1147.52C370.838 1148.06 370.838 1148.37 371.11 1148.43C371.381 1148.49 371.531 1148.43 371.983 1148.18C372.831 1147.4 373.5 1146.44 373.942 1145.38C374.384 1144.31 374.59 1143.16 374.545 1142.01V1126.34C374.545 1125.98 374.688 1125.63 374.942 1125.38C375.196 1125.13 375.541 1124.98 375.901 1124.98C376.26 1124.98 376.605 1125.13 376.859 1125.38C377.114 1125.63 377.257 1125.98 377.257 1126.34V1142.01C377.324 1143.63 377.007 1145.25 376.332 1146.74C375.656 1148.22 374.642 1149.52 373.369 1150.53C372.725 1150.93 371.987 1151.15 371.23 1151.17Z" fill="white"/>
<path d="M356.857 1138.54V1136.19C357.215 1130.16 358.979 1124.29 362.008 1119.06C365.038 1113.83 369.248 1109.37 374.304 1106.06C379.245 1103.23 383.946 1102.81 387.562 1104.91C389.49 1106.24 391.028 1108.05 392.014 1110.17C393 1112.29 393.398 1114.64 393.166 1116.97V1117.75L356.857 1138.54ZM382.5 1106.18C380.087 1106.29 377.743 1107.02 375.69 1108.29C371.357 1111.14 367.689 1114.89 364.934 1119.28C362.178 1123.68 360.4 1128.61 359.719 1133.75L390.364 1116.03C390.495 1114.29 390.172 1112.54 389.428 1110.96C388.684 1109.37 387.542 1108.01 386.115 1106.99C385.002 1106.41 383.755 1106.13 382.5 1106.18Z" fill="white"/>
</g>
<path opacity="0.7" d="M39.624 791.147L289.933 935.963L342.213 1008.19L287.161 938.524L39.624 791.147Z" fill="white"/>
<path opacity="0.7" d="M564.468 879.856L342.213 1008.19V1182.14L346.371 1011.69L564.468 879.856Z" fill="white"/>
<path d="M238.316 810.281C261.247 806.966 282.189 792.201 295.568 773.64C301.807 764.967 306.403 755.224 309.127 744.894C312.021 735.233 312.497 725.01 310.513 715.123C306.385 698.58 291.078 688.787 274.897 686.738C266.686 685.658 258.337 686.472 250.49 689.119C242.353 691.911 235.294 697.179 230.301 704.185C227.171 707.917 225.202 712.484 224.636 717.322C224.588 719.217 225.256 721.061 226.507 722.485C227.758 723.909 229.5 724.81 231.386 725.006C236.238 725.415 241.087 724.184 245.156 721.511C250.119 718.728 254.49 715.002 258.023 710.543C265.602 701.189 271.273 690.44 274.716 678.904C277.132 669.005 277.132 658.67 274.716 648.771C272.881 638.416 268.148 628.794 261.066 621.02C252.948 613.636 242.645 609.099 231.717 608.093C220.842 606.599 209.768 607.63 199.355 611.106C194.782 612.493 190.544 614.811 186.911 617.916C184.319 620.327 181.366 624.304 182.421 628.221C183.476 632.138 189.201 633.886 193.088 633.374C198.841 632.296 204.11 629.44 208.154 625.208C212.66 620.772 216.488 615.695 219.514 610.142C221.762 606.151 222.935 601.645 222.919 597.064C222.527 577.961 201.404 565.606 184.862 562.111C180.396 561.178 175.822 560.874 171.272 561.207C169.735 561.207 170.669 563.738 171.905 563.648C180.807 563.243 189.653 565.241 197.517 569.433C205.276 572.999 211.792 578.801 216.229 586.096C218.207 589.693 219.183 593.754 219.056 597.856C218.929 601.959 217.703 605.952 215.506 609.419C212.556 614.558 208.882 619.246 204.598 623.34C201.013 626.594 195.559 630.361 190.527 629.999C189.696 629.997 188.882 629.762 188.179 629.319C187.476 628.877 186.911 628.246 186.549 627.498C186.397 626.509 186.479 625.497 186.788 624.545C187.096 623.593 187.623 622.726 188.327 622.014C190.988 619.148 194.278 616.941 197.939 615.566C206.979 611.808 216.767 610.199 226.535 610.865C236.6 611.047 246.389 614.191 254.678 619.905C261.899 625.9 267.028 634.036 269.323 643.137C272.23 652.382 273.134 662.14 271.974 671.762C270.185 681.444 266.465 690.667 261.036 698.881C255.462 708.102 248.471 716.961 237.985 720.577C235.394 721.511 229.97 722.867 228.945 719.1C227.921 715.334 230.874 710.693 232.772 707.771C236.97 701.164 243.09 696.001 250.309 692.976C257.275 690.183 264.795 689.049 272.275 689.661C286.468 690.716 300.871 698.128 305.813 712.23C308.292 720.658 308.561 729.582 306.596 738.144C304.823 747.529 301.45 756.539 296.622 764.781C286.239 782.292 270.513 796.011 251.755 803.923C247.296 805.851 242.716 807.478 238.045 808.985C237.563 809.166 237.774 810.371 238.316 810.281Z" fill="#E0E0E0"/>
<path d="M142.526 548.672C130.473 547.798 113.87 557.29 119.776 564.22C125.682 571.151 141.351 559.941 141.351 559.941C141.351 559.941 139.874 573.953 144.997 575.55C150.119 577.147 157.05 563.768 151.927 555.211C154.397 556.185 157.074 556.519 159.708 556.181C162.342 555.844 164.848 554.847 166.993 553.282C174.285 547.919 166.571 542.856 156.296 543.76C156.296 543.76 163.649 519.655 148.793 524.265C141.351 526.525 138.729 535.233 142.526 548.672Z" fill="#27AE60"/>
<path opacity="0.65" d="M142.526 548.672C130.473 547.798 113.87 557.29 119.776 564.22C125.682 571.151 141.351 559.941 141.351 559.941C141.351 559.941 139.874 573.953 144.997 575.55C150.119 577.147 157.05 563.768 151.927 555.211C154.397 556.185 157.074 556.519 159.708 556.181C162.342 555.844 164.848 554.847 166.993 553.282C174.285 547.919 166.571 542.856 156.296 543.76C156.296 543.76 163.649 519.655 148.793 524.265C141.351 526.525 138.729 535.233 142.526 548.672Z" fill="white"/>
<path d="M153.735 553.794C153.068 553.141 152.364 552.528 151.626 551.956C150.571 551.143 149.456 550.359 148.402 549.576C147.375 548.829 146.297 548.155 145.177 547.557C144.533 547.199 143.869 546.877 143.189 546.593C142.25 546.152 141.205 545.985 140.175 546.111C139.906 546.118 139.643 546.198 139.414 546.342C139.186 546.486 139 546.689 138.877 546.929C138.754 547.17 138.698 547.438 138.714 547.708C138.73 547.977 138.819 548.237 138.97 548.461C139.798 549.358 140.833 550.041 141.983 550.45L143.61 551.324C144.725 551.987 145.72 552.74 146.624 553.493C147.528 554.246 148.733 554.97 149.637 555.723C151.191 556.984 152.929 558 154.79 558.736C154.873 558.781 154.966 558.805 155.061 558.805C155.155 558.805 155.249 558.781 155.332 558.736C156.869 557.531 154.609 554.668 153.735 553.794Z" fill="#455A64"/>
<path d="M1114.38 217.187C1101.22 234.904 1083.59 332.322 1076.93 363.569C1044.9 362.635 1002.05 361.129 985.839 359.441C967.759 357.543 929.16 353.837 910.207 356.428C863.17 362.454 865.008 393.37 866.153 401.446C867.389 410.666 873.988 414.885 899.299 409.129C904.962 407.885 910.736 407.208 916.534 407.11C918.975 407.11 924.128 405.875 926.056 407.954C929.069 410.967 920.361 416.03 918.192 417.416C914.847 419.585 911.352 422.327 910.659 426.244C910.46 426.961 910.471 427.719 910.689 428.429C910.908 429.139 911.326 429.772 911.894 430.252C913.12 430.753 914.494 430.753 915.721 430.252C927.274 427.51 938.417 423.266 948.866 417.627C952.806 415.251 956.951 413.234 961.251 411.6C967.789 409.491 974.539 410.726 981.108 410.726C995.24 410.726 1069.94 418.139 1103.14 421.514C1126.13 423.834 1128.58 401.144 1136.5 378.153C1146.23 349.648 1169.28 199.74 1169.28 199.74C1146.02 196.365 1130.05 196.154 1114.38 217.187Z" fill="#FFA8A7"/>
<path d="M1169.65 197.39C1158.53 195.341 1133.49 192.237 1119.87 207.454C1106.25 222.671 1103.02 238.641 1097.03 261.692C1091.03 284.743 1080.39 326.024 1080.39 326.024C1080.39 326.024 1097.96 351.245 1152.95 344.104L1169.65 197.39Z" fill="#37474F"/>
<path d="M1307.74 994.148L1269.08 994.178L1257.96 910.26L1306.75 908.331L1307.74 994.148Z" fill="#FFA8A7"/>
<path d="M1179.38 952.234C1172.81 963.654 1151.69 962.72 1134.18 958.682L1132.16 876.18L1183.84 874.131L1179.38 952.234Z" fill="#FFA8A7"/>
<path d="M1305.12 463.88C1306.51 499.587 1301.78 710.724 1301.78 710.724C1303.07 720.969 1313.68 738.837 1315.88 775.809C1319.1 829.505 1308.16 944.008 1308.16 944.008C1308.16 944.008 1286.02 955.579 1262.15 946.72C1262.15 946.72 1237.87 780.992 1229.01 728.02C1221.35 681.917 1211.53 558.254 1211.53 558.254L1192.46 716.75C1195.95 735.511 1197.4 754.597 1196.76 773.67C1195.98 798.318 1181.94 918.004 1181.94 918.004C1165.92 923.244 1148.71 923.653 1132.46 919.179C1132.46 919.179 1120.95 733.443 1119.63 710.935C1118.12 685.262 1119.14 458.637 1119.14 458.637L1305.12 463.88Z" fill="#27AE60"/>
<path opacity="0.2" d="M1211.59 558.314C1211.59 558.314 1177.81 548.732 1154.79 528.182C1154.79 528.182 1165.58 546.593 1196.13 562.925L1194.38 701.262L1211.59 558.314Z" fill="black"/>
<path d="M1225.03 1064.15C1223.79 1065.41 1224.52 1073.76 1226.02 1075.93C1227.53 1078.1 1236.75 1085.45 1252.75 1085.99C1268.03 1086.47 1281.53 1083.88 1290.24 1077.86C1298.94 1071.83 1303.04 1065.41 1303.55 1056.76C1304.07 1048.11 1302.77 1039.71 1306.57 1032.87C1310.15 1026.57 1315.97 1019.37 1317.14 1015.96C1319.76 1008.58 1316.57 998.306 1316.57 998.306L1225.03 1064.15Z" fill="#263238"/>
<path d="M1263.6 986.796C1263.62 990.091 1263.15 993.37 1262.21 996.528C1258.94 1006.8 1254.03 1016.48 1247.66 1025.18C1243.26 1030.82 1237.71 1035.55 1233.04 1041C1228.05 1046.18 1224.98 1052.91 1224.37 1060.08C1224.19 1072.13 1237.32 1075.6 1247.36 1076.98C1258.23 1078.42 1269.29 1077.39 1279.72 1073.97C1285.21 1072.31 1290.11 1069.11 1293.82 1064.73C1297.53 1060.36 1299.89 1055.01 1300.63 1049.32C1301.05 1045.98 1300.63 1042.6 1300.99 1039.26C1302.01 1031.57 1304.92 1024.27 1309.46 1017.98C1312.08 1014.35 1314.33 1010.45 1316.15 1006.35C1318.95 998.819 1316.15 990.592 1313.86 983.33C1311.9 977.033 1309.67 969.892 1307.47 970.585C1307.47 973.929 1307.47 974.231 1305.33 976.611C1302.32 979.624 1302.47 983.813 1299.3 986.434C1300.22 983.653 1300.85 980.786 1301.17 977.877C1301.32 976.69 1301.03 975.49 1300.36 974.502C1299.27 973.617 1297.99 972.998 1296.62 972.694C1291.86 971.285 1286.96 970.367 1282.01 969.952C1277.3 969.332 1272.51 969.485 1267.85 970.404C1266.47 970.723 1265.24 971.498 1264.35 972.603C1263.58 973.837 1263.19 975.275 1263.24 976.732C1263.24 978.69 1263.57 983.602 1263.6 986.796Z" fill="#455A64"/>
<path d="M1252.15 1018.52C1256.49 1015.03 1266.43 1014.58 1271.91 1014.97C1277.47 1015.22 1282.87 1016.88 1287.61 1019.79C1288.31 1020.26 1289.15 1020.46 1289.99 1020.36C1290.82 1020.26 1291.59 1019.87 1292.16 1019.25C1292.5 1018.9 1292.75 1018.48 1292.9 1018.02C1293.06 1017.56 1293.11 1017.07 1293.06 1016.59C1293.01 1016.11 1292.85 1015.65 1292.61 1015.23C1292.36 1014.82 1292.02 1014.46 1291.62 1014.19C1286.38 1010.64 1280.26 1008.63 1273.93 1008.4C1260.49 1008.01 1256.67 1010.45 1256.67 1010.45C1256.67 1010.45 1250.67 1014.61 1252.15 1018.52Z" fill="#F5F5F5"/>
<path d="M1242.39 1031.18C1247.84 1027.66 1258.84 1027.69 1264.29 1028.17C1269.76 1028.51 1275.04 1030.29 1279.6 1033.32C1280.29 1033.78 1281.13 1033.99 1281.96 1033.89C1282.79 1033.79 1283.55 1033.39 1284.12 1032.78C1284.46 1032.43 1284.72 1032.01 1284.88 1031.56C1285.04 1031.1 1285.09 1030.61 1285.05 1030.13C1285 1029.64 1284.84 1029.18 1284.59 1028.76C1284.35 1028.34 1284.01 1027.99 1283.61 1027.72C1278.28 1023.98 1272.02 1021.81 1265.53 1021.45C1252.06 1021.03 1248.68 1023.89 1248.68 1023.89C1247.15 1024.55 1245.79 1025.55 1244.7 1026.81C1243.61 1028.08 1242.82 1029.57 1242.39 1031.18Z" fill="#F5F5F5"/>
<path d="M1278.75 995.383C1273.07 994.607 1267.28 995.313 1261.94 997.432C1259.65 998.849 1258.23 1002.65 1259.77 1003.46C1264.44 1001.36 1269.55 1000.45 1274.66 1000.81C1279.7 1001.1 1284.65 1002.27 1289.3 1004.24C1290.48 1004.69 1291.86 1005.36 1293.07 1005.96C1293.45 1006.16 1293.88 1006.27 1294.31 1006.3C1294.74 1006.33 1295.17 1006.27 1295.58 1006.13C1295.99 1005.99 1296.37 1005.76 1296.68 1005.47C1297 1005.17 1297.26 1004.82 1297.44 1004.42C1297.72 1003.74 1297.74 1002.97 1297.5 1002.27C1297.26 1001.57 1296.76 1000.99 1296.11 1000.63C1290.77 997.652 1284.85 995.864 1278.75 995.383Z" fill="#F5F5F5"/>
<path d="M1045.83 1003.7C1044.46 1007.14 1044.46 1010.98 1045.83 1014.43C1047.16 1017.65 1063.13 1027.66 1085.31 1027.23C1101.8 1026.83 1117.88 1022.03 1131.89 1013.31C1140.6 1008.13 1149.43 1007.5 1160.39 1007.29C1171.36 1007.07 1186.01 1002.4 1188.66 997.402C1191.31 992.4 1188.96 983.451 1188.96 983.451L1045.83 1003.7Z" fill="#263238"/>
<path d="M1138.34 938.916L1136.62 938.464C1135.65 938.168 1134.62 938.076 1133.61 938.192C1132.52 938.453 1131.54 939.042 1130.81 939.88C1128.52 942.552 1126.51 945.438 1124.78 948.498C1119.81 955.82 1109.71 961.635 1098.86 966.848C1091.45 970.374 1084.25 973.055 1076.63 976.039C1069 979.022 1058.55 980.709 1052.52 984.446C1043.48 989.899 1041.76 1004.51 1051.35 1010.78C1059.66 1016.2 1081.84 1022.68 1105.58 1017.14C1118.57 1014.13 1133.46 1001.11 1150.33 1000.6C1161.09 1000.26 1181.46 998.216 1188.72 990.412C1191.46 986.946 1188.72 975.345 1186.28 965.342C1183.75 954.434 1184.89 938.222 1180.01 938.222L1179.71 943.677C1179.26 945.304 1175.43 946.901 1174.23 948.166L1169.89 952.746C1168.11 954.867 1165.94 956.626 1163.5 957.929C1159.19 959.857 1154.16 958.713 1149.55 957.507C1149.37 957.507 1151.87 949.13 1152.14 948.317C1152.41 947.681 1152.49 946.98 1152.38 946.298C1152.15 945.63 1151.69 945.065 1151.08 944.701C1147.28 941.914 1142.94 939.944 1138.34 938.916Z" fill="#455A64"/>
<path d="M1109.17 961.485C1110.01 960.049 1111.2 958.848 1112.63 957.99C1114.05 957.133 1115.67 956.645 1117.34 956.573C1122.25 955.91 1130.65 959.888 1135.81 964.558C1136.29 964.996 1136.66 965.546 1136.89 966.16C1137.11 966.774 1137.18 967.434 1137.09 968.082C1137.01 968.73 1136.76 969.346 1136.38 969.877C1136 970.408 1135.49 970.837 1134.9 971.127C1134.17 971.491 1133.34 971.617 1132.53 971.487C1131.72 971.358 1130.97 970.979 1130.38 970.404C1124.74 964.785 1117.13 961.586 1109.17 961.485Z" fill="#F5F5F5"/>
<path d="M1093.68 969.228C1094.81 967.785 1096.27 966.634 1097.94 965.873C1099.61 965.113 1101.43 964.765 1103.26 964.859C1103.26 964.859 1115.98 965.823 1123.48 973.537C1123.95 973.96 1124.3 974.489 1124.51 975.078C1124.73 975.668 1124.8 976.3 1124.72 976.922C1124.63 977.543 1124.4 978.136 1124.04 978.648C1123.68 979.161 1123.2 979.578 1122.64 979.865C1121.93 980.212 1121.13 980.331 1120.35 980.207C1119.56 980.083 1118.84 979.722 1118.27 979.172C1115.18 975.774 1111.37 973.115 1107.11 971.393C1102.85 969.672 1098.26 968.932 1093.68 969.228Z" fill="#F5F5F5"/>
<path d="M1076.66 976.039C1077.94 974.713 1079.49 973.68 1081.2 973.009C1082.92 972.338 1084.76 972.046 1086.6 972.151C1093.8 972.946 1100.57 975.994 1105.95 980.86C1106.41 981.286 1106.76 981.817 1106.98 982.408C1107.19 983 1107.26 983.634 1107.18 984.258C1107.09 984.882 1106.86 985.476 1106.5 985.991C1106.14 986.507 1105.66 986.927 1105.1 987.218C1104.39 987.569 1103.59 987.689 1102.8 987.559C1102.02 987.429 1101.29 987.057 1100.73 986.494C1097.81 983.001 1094.11 980.237 1089.93 978.422C1085.75 976.607 1081.21 975.791 1076.66 976.039Z" fill="#F5F5F5"/>
<path d="M1234.07 198.052C1248.29 199.68 1265.1 200.553 1278.69 202.331C1296.2 204.621 1309.85 222.731 1314.13 250.754C1318.83 281.609 1299.06 370.078 1299.06 370.078L1305.36 474.396C1279.72 493.289 1170.52 503.202 1116.1 463.91C1116.1 463.91 1117.37 286.37 1121.61 259.01C1127.46 221.495 1136.68 198.203 1178.87 195.521L1234.07 198.052Z" fill="#455A64"/>
<path d="M1331.31 424.045C1326.7 431.759 1322.05 439.472 1317.29 447.096C1315.55 449.928 1313.77 452.731 1311.93 455.503C1310.93 456.86 1309.77 458.085 1308.47 459.149C1306.18 460.716 1301.41 459.721 1298.64 459.812C1285.02 460.274 1271.44 461.278 1257.9 462.825C1256.77 462.79 1255.64 463.003 1254.6 463.451C1253.56 463.899 1252.63 464.57 1251.88 465.416C1251.32 466.583 1251.21 467.913 1251.56 469.156C1251.92 470.399 1252.72 471.469 1253.81 472.166C1256.02 473.497 1258.54 474.244 1261.13 474.336L1272.88 475.722C1274.56 475.778 1276.18 476.3 1277.58 477.228C1281.86 480.693 1273.69 484.852 1271.25 486.539C1266.34 489.949 1261.1 492.857 1255.61 495.217C1231.12 505.522 1228.13 512.995 1232.65 521.493C1236.57 528.875 1253.5 555.723 1296.53 532.611C1313.86 523.301 1340.22 493.891 1352.25 479.669C1369.54 459.149 1398.8 413.378 1398.8 413.378C1415.43 390.538 1417.57 381.166 1417.97 371.675C1418.36 362.183 1366.74 289.173 1349.2 263.53C1331.67 237.887 1323.32 206.7 1278.69 202.422C1278.69 202.422 1261.7 256.298 1289.84 291.161L1354.84 381.829C1354.84 381.829 1337.63 413.468 1331.31 424.045Z" fill="#FFA8A7"/>
<path d="M1378.46 298.303C1370.12 286.25 1361.41 273.835 1353 261.541C1317.6 209.864 1320.58 200.403 1269.53 199.68C1265.01 206.61 1262.33 236.441 1269.14 266.393C1274.84 291.553 1296.26 309.301 1296.26 309.301L1321.81 343.923C1321.81 343.923 1337.45 343.441 1356.19 329.701C1367.02 322.118 1374.89 311.025 1378.46 298.303Z" fill="#37474F"/>
<path d="M1267.73 62.2462C1265.16 58.4226 1261.61 55.3665 1257.44 53.4032C1253.27 51.4399 1248.65 50.643 1244.07 51.0972L1241.42 115.791L1237.08 139.686L1237.84 166.293C1240.35 165.937 1242.74 164.949 1244.78 163.421C1246.81 161.893 1248.42 159.875 1249.47 157.555C1253.44 149.901 1264.53 112.899 1264.53 112.899C1274.48 82.4951 1272.37 68.7548 1267.73 62.2462Z" fill="#263238"/>
<path d="M1238.41 116.093C1239.53 112.161 1241.68 108.602 1244.65 105.787C1248.35 101.81 1263.12 97.501 1269.84 110.036C1276.56 122.571 1265.23 139.114 1256.49 144.176C1245.31 150.685 1238.74 141.826 1238.74 141.826L1239.01 201.397C1233.8 213.45 1210.26 224.177 1196.25 222.49C1185.1 221.074 1174.83 212.305 1184.8 199.529L1183.99 182.534C1183.99 182.534 1169.07 185.548 1161.69 184.794C1149.43 183.529 1141.26 174.278 1136.92 161.261C1129.93 140.349 1126.83 123.355 1129.78 81.4104C1133.03 35.4586 1186.16 32.355 1215.78 48.988C1245.4 65.6211 1238.41 116.093 1238.41 116.093Z" fill="#FFA8A7"/>
<path d="M1112.88 33.6808C1111.52 23.6467 1114.99 12.8895 1125.5 9.33387C1129.36 7.7195 1133.6 7.22784 1137.72 7.91553C1141.85 8.60322 1145.7 10.4423 1148.82 13.2209C1150.14 9.681 1152.42 6.57892 1155.41 4.26332C1158.39 1.94771 1161.96 0.510364 1165.72 0.112803C1169.48 -0.284759 1173.27 0.373223 1176.67 2.01281C1180.07 3.65239 1182.95 6.2086 1184.98 9.39413C1187.78 5.15144 1192.09 2.14224 1197.04 0.987217C1200.09 0.306252 1203.24 0.243381 1206.31 0.802327C1209.39 1.36127 1212.32 2.53069 1214.93 4.2415C1219.21 7.40539 1224.25 13.2812 1222.98 20.9047C1231.45 17.4997 1240.28 20.3321 1246.57 27.805C1250.32 32.381 1252.44 38.0732 1252.6 43.986C1252.82 47.0572 1252.38 50.1395 1251.3 53.0257C1250.1 55.7677 1247.63 57.5757 1246.9 60.6793C1245.85 63.41 1245.31 66.3106 1245.31 69.2369C1246 74.2991 1247.12 79.3613 1247.78 84.303C1248.49 89.2251 1248.9 94.186 1249.01 99.1583C1248.86 100.328 1248.45 101.45 1247.82 102.448C1247.19 103.446 1246.36 104.297 1245.37 104.944C1242.56 107.404 1240.37 110.504 1239.01 113.983C1237.96 116.153 1236.93 121.516 1234.85 123.023C1228.43 127.513 1227.71 112.989 1227.41 110.187C1227 103.755 1227 97.3035 1227.41 90.8719C1224.17 90.8301 1220.98 90.1114 1218.04 88.7622C1215.1 87.4129 1212.47 85.4629 1210.32 83.0375C1208.1 80.3119 1206.64 77.0484 1206.08 73.5759C1205.73 71.5864 1205.57 69.5689 1205.59 67.5495C1201.41 74.4799 1191.67 77.3123 1184.74 76.5892C1173.11 75.5345 1169.1 70.5627 1167.24 66.9167C1166.5 70.5105 1164.92 73.8777 1162.62 76.7398C1159.65 79.5318 1156.07 81.5949 1152.17 82.7663C1148.8 83.6651 1145.25 83.6295 1141.9 82.6633C1138.55 81.6972 1135.53 79.8369 1133.16 77.2822C1128.42 84.062 1116.43 81.0487 1113.78 79.1504C1107.75 74.7812 1105.8 69.5683 1105.13 62.1257C1104.47 54.683 1107.48 46.1857 1115.74 43.2628C1114.25 40.2533 1113.28 37.0135 1112.88 33.6808Z" fill="#263238"/>
<path d="M1183.99 182.444C1183.99 182.444 1210.93 175.634 1220.15 170.09C1225.6 166.896 1229.96 162.127 1232.65 156.41C1231.49 162.05 1229.2 167.399 1225.93 172.139C1219.42 181.389 1184.29 189.706 1184.29 189.706L1183.99 182.444Z" fill="#F28F8F"/>
<path d="M1185.5 114.104C1185.6 115.245 1186.03 116.332 1186.75 117.228C1187.46 118.124 1188.42 118.791 1189.51 119.145C1190.6 119.499 1191.77 119.525 1192.88 119.219C1193.98 118.914 1194.97 118.291 1195.72 117.427C1196.48 116.563 1196.96 115.497 1197.11 114.362C1197.26 113.226 1197.08 112.071 1196.58 111.039C1196.08 110.008 1195.29 109.145 1194.3 108.56C1193.32 107.975 1192.18 107.691 1191.04 107.746C1189.47 107.87 1188.01 108.604 1186.97 109.793C1185.93 110.982 1185.4 112.529 1185.5 114.104Z" fill="#263238"/>
<path d="M1176.49 157.705C1176.62 159.175 1177.19 160.573 1178.12 161.723C1179.04 162.874 1180.28 163.727 1181.69 164.177C1183.1 164.627 1184.6 164.654 1186.03 164.254C1187.45 163.854 1188.72 163.046 1189.68 161.929C1190.65 160.812 1191.27 159.436 1191.46 157.971C1191.65 156.507 1191.4 155.02 1190.75 153.693C1190.1 152.367 1189.08 151.26 1187.81 150.511C1186.54 149.762 1185.07 149.403 1183.6 149.479C1181.57 149.641 1179.69 150.595 1178.35 152.134C1177.02 153.674 1176.35 155.675 1176.49 157.705Z" fill="#F28F8F"/>
<path d="M1190.35 94.0358L1202.76 100.062C1203.53 98.3607 1203.62 96.4271 1203.01 94.6608C1202.4 92.8945 1201.14 91.4304 1199.48 90.5706C1198.65 90.1768 1197.76 89.9542 1196.85 89.9162C1195.93 89.8783 1195.02 90.0257 1194.17 90.3496C1193.32 90.6735 1192.54 91.1672 1191.88 91.8008C1191.22 92.4344 1190.7 93.1948 1190.35 94.0358Z" fill="#263238"/>
<path d="M1136.35 99.2487L1146.93 90.209C1146.37 89.4879 1145.68 88.8872 1144.89 88.4437C1144.1 88.0003 1143.22 87.7235 1142.32 87.6303C1141.42 87.5372 1140.5 87.6297 1139.64 87.9022C1138.77 88.1746 1137.97 88.6213 1137.28 89.2147C1135.87 90.4496 1134.99 92.1786 1134.82 94.0455C1134.64 95.9123 1135.19 97.7746 1136.35 99.2487Z" fill="#263238"/>
<path d="M1139.51 112.929C1139.59 114.043 1139.99 115.112 1140.67 115.999C1141.34 116.887 1142.27 117.554 1143.32 117.917C1144.38 118.28 1145.52 118.323 1146.6 118.04C1147.68 117.757 1148.66 117.16 1149.4 116.326C1150.14 115.492 1150.62 114.456 1150.78 113.35C1150.93 112.244 1150.76 111.117 1150.27 110.109C1149.79 109.102 1149.02 108.261 1148.06 107.69C1147.1 107.119 1145.99 106.845 1144.88 106.902C1143.37 107.003 1141.97 107.691 1140.96 108.818C1139.96 109.946 1139.44 111.422 1139.51 112.929Z" fill="#263238"/>
<path d="M1167.48 106.239L1167.3 141.886L1148.43 136.462L1167.48 106.239Z" fill="#F28F8F"/>
<path d="M1120.14 156.108C1120.31 156.07 1120.48 155.996 1120.62 155.893C1120.77 155.789 1120.89 155.658 1120.98 155.506C1121.09 155.357 1121.16 155.188 1121.2 155.009C1121.24 154.83 1121.25 154.644 1121.21 154.464C1121.18 154.284 1121.11 154.112 1121.01 153.96C1120.91 153.807 1120.77 153.677 1120.62 153.577L1104.23 142.669C1104.08 142.568 1103.91 142.497 1103.73 142.462C1103.55 142.427 1103.36 142.427 1103.18 142.464C1103 142.5 1102.83 142.571 1102.68 142.674C1102.53 142.777 1102.4 142.908 1102.3 143.061C1102.19 143.212 1102.12 143.382 1102.08 143.563C1102.05 143.743 1102.04 143.929 1102.08 144.109C1102.12 144.29 1102.19 144.461 1102.3 144.612C1102.4 144.764 1102.54 144.892 1102.69 144.989L1119.05 155.897C1119.21 156.01 1119.38 156.088 1119.57 156.124C1119.76 156.161 1119.95 156.155 1120.14 156.108Z" fill="#E0E0E0"/>
<path d="M1118.39 163.159C1118.65 163.096 1118.88 162.964 1119.06 162.778C1119.25 162.593 1119.38 162.36 1119.45 162.105C1119.53 161.741 1119.46 161.36 1119.26 161.045C1119.07 160.729 1118.75 160.503 1118.39 160.417L1099.23 155.988C1099.05 155.943 1098.86 155.934 1098.68 155.961C1098.5 155.989 1098.33 156.052 1098.17 156.147C1098.01 156.242 1097.88 156.368 1097.77 156.517C1097.66 156.665 1097.58 156.834 1097.54 157.012C1097.46 157.376 1097.52 157.757 1097.72 158.072C1097.92 158.388 1098.23 158.614 1098.59 158.7L1117.76 163.159C1117.97 163.189 1118.18 163.189 1118.39 163.159Z" fill="#E0E0E0"/>
<path d="M1100.58 175.905H1100.76L1119.23 169.156C1119.58 169.028 1119.86 168.767 1120.02 168.431C1120.18 168.095 1120.19 167.71 1120.06 167.363C1119.94 167.015 1119.67 166.732 1119.34 166.577C1119 166.422 1118.62 166.406 1118.27 166.534L1099.8 173.284C1099.63 173.347 1099.47 173.445 1099.33 173.571C1099.2 173.696 1099.09 173.848 1099.01 174.016C1098.94 174.185 1098.89 174.367 1098.89 174.551C1098.89 174.736 1098.92 174.92 1098.99 175.092C1099.11 175.394 1099.34 175.642 1099.63 175.791C1099.93 175.94 1100.26 175.981 1100.58 175.905Z" fill="#E0E0E0"/>
<path d="M944.316 320.45C944.697 321.214 945.294 321.851 946.033 322.28C946.771 322.708 947.62 322.911 948.473 322.863C949.326 322.815 950.146 322.518 950.831 322.009C951.517 321.5 952.039 320.801 952.331 319.998L966.072 286.099C966.295 285.556 966.406 284.973 966.399 284.385C966.391 283.798 966.265 283.218 966.029 282.681C965.792 282.143 965.45 281.658 965.022 281.256C964.594 280.854 964.089 280.542 963.537 280.339C962.986 280.137 962.399 280.047 961.813 280.076C961.226 280.106 960.651 280.253 960.123 280.509C959.594 280.766 959.123 281.126 958.737 281.569C958.351 282.011 958.058 282.527 957.876 283.086L944.105 316.985C943.902 317.546 943.816 318.143 943.852 318.739C943.888 319.335 944.046 319.917 944.316 320.45Z" fill="#E0E0E0"/>
<path d="M921.687 320.269C922.126 321.157 922.853 321.87 923.75 322.291C924.647 322.711 925.661 322.814 926.624 322.583C927.587 322.352 928.444 321.8 929.052 321.018C929.661 320.236 929.986 319.271 929.973 318.28L929.521 276.095C929.43 275.003 928.932 273.985 928.126 273.243C927.319 272.5 926.263 272.089 925.167 272.089C924.071 272.089 923.015 272.5 922.209 273.243C921.402 273.985 920.904 275.003 920.813 276.095L921.235 318.28C921.227 318.97 921.381 319.651 921.687 320.269Z" fill="#E0E0E0"/>
<path d="M883.328 296.796L883.6 297.308L904.361 327.441C905.004 328.395 905.998 329.056 907.126 329.282C908.255 329.508 909.426 329.279 910.387 328.646C911.324 327.988 911.969 326.993 912.188 325.869C912.408 324.746 912.183 323.581 911.562 322.619L890.801 292.487C890.196 291.552 889.256 290.886 888.173 290.626C887.091 290.365 885.95 290.531 884.986 291.088C884.022 291.645 883.31 292.552 882.996 293.62C882.681 294.688 882.79 295.836 883.298 296.826L883.328 296.796Z" fill="#E0E0E0"/>
</svg>
