<svg width="633" height="472" viewBox="0 0 633 472" fill="none" xmlns="http://www.w3.org/2000/svg">
<path d="M632.24 413.991H0V414.307H632.24V413.991Z" fill="#EBEBEB"/>
<path d="M568.889 434.336H527.01V434.652H568.889V434.336Z" fill="#EBEBEB"/>
<path d="M418.821 437.776H407.833V438.092H418.821V437.776Z" fill="#EBEBEB"/>
<path d="M525.745 422.602H501.48V422.918H525.745V422.602Z" fill="#EBEBEB"/>
<path d="M120.947 424.726H66.3346V425.042H120.947V424.726Z" fill="#EBEBEB"/>
<path d="M140.218 424.726H132.214V425.042H140.218V424.726Z" fill="#EBEBEB"/>
<path d="M284.698 430.062H166.241V430.378H284.698V430.062Z" fill="#EBEBEB"/>
<path d="M299.682 357.595H55.5233C53.6106 357.592 51.7774 356.829 50.4261 355.476C49.0748 354.122 48.3158 352.287 48.3158 350.375V7.15696C48.3324 5.25521 49.0988 3.43683 50.4483 2.09678C51.7978 0.756738 53.6215 0.00325779 55.5233 0H299.682C301.597 0 303.433 0.760696 304.787 2.11474C306.141 3.46879 306.902 5.30527 306.902 7.22018V350.375C306.902 352.29 306.141 354.126 304.787 355.48C303.433 356.834 301.597 357.595 299.682 357.595ZM55.5233 0.252897C53.6945 0.256247 51.9416 0.985112 50.6496 2.27951C49.3576 3.57391 48.6319 5.32807 48.6319 7.15696V350.375C48.6319 352.204 49.3576 353.958 50.6496 355.252C51.9416 356.547 53.6945 357.275 55.5233 357.279H299.682C301.512 357.275 303.266 356.547 304.56 355.253C305.854 353.959 306.582 352.205 306.586 350.375V7.15696C306.582 5.32691 305.854 3.57278 304.56 2.27874C303.266 0.984701 301.512 0.256239 299.682 0.252897H55.5233Z" fill="#EBEBEB"/>
<path d="M573.201 357.595H329.03C327.116 357.592 325.282 356.83 323.929 355.476C322.575 354.123 321.813 352.289 321.81 350.375V7.15696C321.83 5.25406 322.599 3.43569 323.951 2.09599C325.302 0.756296 327.127 0.00322226 329.03 0H573.201C575.101 0.00658098 576.921 0.761532 578.268 2.10122C579.615 3.44091 580.38 5.25739 580.396 7.15696V350.375C580.396 352.285 579.639 354.118 578.29 355.471C576.942 356.825 575.112 357.588 573.201 357.595ZM329.03 0.252897C327.2 0.256239 325.446 0.984701 324.152 2.27874C322.858 3.57278 322.13 5.32691 322.126 7.15696V350.375C322.13 352.205 322.858 353.959 324.152 355.253C325.446 356.547 327.2 357.275 329.03 357.279H573.201C575.031 357.275 576.785 356.547 578.079 355.253C579.374 353.959 580.102 352.205 580.105 350.375V7.15696C580.102 5.32691 579.374 3.57278 578.079 2.27874C576.785 0.984701 575.031 0.256239 573.201 0.252897H329.03Z" fill="#EBEBEB"/>
<path d="M80.914 413.991H119.531L119.531 248.217H80.914L80.914 413.991Z" fill="#E6E6E6"/>
<path d="M88.2607 413.991H80.9141V393.127H95.9487L88.2607 413.991Z" fill="#F0F0F0"/>
<path d="M275.012 413.991H313.629V248.217H275.012V413.991Z" fill="#E6E6E6"/>
<path d="M80.914 403.723H281.41V248.23L80.914 248.23L80.914 403.723Z" fill="#F0F0F0"/>
<path d="M86.6042 254.312H178.709V375.108H86.6042V254.312Z" fill="#E6E6E6"/>
<path d="M183.628 254.312H275.72V375.108H183.628V254.312Z" fill="#E6E6E6"/>
<path d="M204.226 269.878C204.226 271.169 203.843 272.431 203.126 273.504C202.408 274.577 201.388 275.414 200.195 275.907C199.002 276.401 197.69 276.529 196.424 276.276C195.158 276.024 193.995 275.401 193.083 274.487C192.171 273.573 191.551 272.41 191.301 271.143C191.05 269.877 191.181 268.564 191.677 267.372C192.173 266.18 193.011 265.162 194.086 264.447C195.16 263.731 196.423 263.351 197.714 263.353C199.442 263.357 201.099 264.045 202.32 265.269C203.541 266.492 204.226 268.15 204.226 269.878Z" fill="#FAFAFA"/>
<path d="M171.147 269.878C171.147 271.168 170.765 272.43 170.048 273.503C169.331 274.576 168.312 275.412 167.12 275.906C165.927 276.4 164.615 276.529 163.35 276.277C162.084 276.025 160.921 275.404 160.009 274.492C159.096 273.579 158.475 272.417 158.223 271.151C157.972 269.885 158.101 268.573 158.595 267.381C159.088 266.189 159.925 265.17 160.998 264.453C162.071 263.736 163.332 263.353 164.623 263.353C166.353 263.353 168.013 264.041 169.236 265.264C170.46 266.488 171.147 268.147 171.147 269.878Z" fill="#FAFAFA"/>
<path d="M274.076 413.991H281.41V393.127H266.388L274.076 413.991Z" fill="#F0F0F0"/>
<path d="M359.719 413.991H393.19V214.911H359.719V413.991Z" fill="#E6E6E6"/>
<path d="M366.08 413.991H359.719V395.909H372.743L366.08 413.991Z" fill="#F0F0F0"/>
<path d="M527.933 413.991H561.404V214.911H527.933V413.991Z" fill="#E6E6E6"/>
<path d="M359.732 402.889H533.497V214.898L359.732 214.898V402.889Z" fill="#F0F0F0"/>
<path d="M364.651 219.842H528.552V255.425H364.651V219.842Z" fill="#E6E6E6"/>
<path d="M364.651 259.534H444.477V380.292H364.651V259.534Z" fill="#E6E6E6"/>
<path d="M448.739 259.534H528.552V380.292H448.739V259.534Z" fill="#E6E6E6"/>
<path d="M466.593 317.068C466.593 318.186 466.262 319.279 465.64 320.209C465.019 321.138 464.137 321.862 463.104 322.29C462.071 322.718 460.935 322.83 459.838 322.612C458.742 322.394 457.735 321.856 456.944 321.065C456.154 320.275 455.615 319.267 455.397 318.171C455.179 317.075 455.291 315.938 455.719 314.905C456.147 313.872 456.871 312.99 457.801 312.369C458.73 311.748 459.823 311.416 460.941 311.416C462.44 311.416 463.878 312.012 464.938 313.072C465.998 314.132 466.593 315.569 466.593 317.068Z" fill="#FAFAFA"/>
<path d="M437.915 317.068C437.915 318.187 437.583 319.28 436.961 320.21C436.339 321.14 435.456 321.864 434.422 322.291C433.389 322.719 432.252 322.83 431.155 322.611C430.058 322.392 429.051 321.852 428.261 321.061C427.471 320.269 426.934 319.26 426.717 318.163C426.501 317.066 426.614 315.929 427.044 314.897C427.474 313.864 428.2 312.982 429.131 312.363C430.062 311.743 431.157 311.414 432.275 311.416C433.772 311.419 435.206 312.016 436.264 313.076C437.321 314.136 437.915 315.571 437.915 317.068Z" fill="#FAFAFA"/>
<path d="M527.136 413.991H533.484V395.909H520.46L527.136 413.991Z" fill="#F0F0F0"/>
<path d="M451.508 237.899C451.51 239.018 451.181 240.112 450.561 241.043C449.942 241.974 449.06 242.7 448.027 243.13C446.995 243.56 445.858 243.674 444.761 243.457C443.663 243.24 442.655 242.703 441.863 241.913C441.072 241.123 440.532 240.116 440.313 239.019C440.094 237.922 440.205 236.785 440.632 235.752C441.06 234.718 441.784 233.835 442.714 233.213C443.644 232.591 444.737 232.26 445.856 232.26C447.352 232.26 448.788 232.853 449.848 233.911C450.907 234.968 451.504 236.402 451.508 237.899Z" fill="#FAFAFA"/>
<path d="M244.209 85.972H239.113L221.651 77.677H242.502L244.209 85.972Z" fill="#E6E6E6"/>
<path d="M241.25 85.972H236.154L218.692 77.677H223.8L241.25 85.972Z" fill="#F5F5F5"/>
<path d="M120.581 85.972H115.485L98.0098 77.677H118.874L120.581 85.972Z" fill="#E6E6E6"/>
<path d="M117.622 85.972H112.526L95.0636 77.677H100.159L117.622 85.972Z" fill="#F5F5F5"/>
<path d="M256.803 69.7361H222.827V77.677H256.803V69.7361Z" fill="#E6E6E6"/>
<path d="M82.1912 77.677L222.827 77.677V69.7361L82.1912 69.7361V77.677Z" fill="#F5F5F5"/>
<path d="M244.209 156.783H239.113L221.651 148.488H242.502L244.209 156.783Z" fill="#E6E6E6"/>
<path d="M241.25 156.783H236.154L218.692 148.488H223.8L241.25 156.783Z" fill="#F5F5F5"/>
<path d="M120.581 156.783H115.485L98.0098 148.488H118.874L120.581 156.783Z" fill="#E6E6E6"/>
<path d="M117.622 156.783H112.526L95.0636 148.488H100.159L117.622 156.783Z" fill="#F5F5F5"/>
<path d="M256.803 140.547H222.827V148.488H256.803V140.547Z" fill="#E6E6E6"/>
<path d="M82.1912 148.488L222.827 148.488V140.547L82.1912 140.547V148.488Z" fill="#F5F5F5"/>
<path d="M162.106 98.4018H122.515V140.547H162.106V98.4018Z" fill="#E0E0E0"/>
<path d="M112.374 140.547H122.515V98.4018H112.374V140.547Z" fill="#F0F0F0"/>
<path d="M172.488 91.9024H142.747V140.547H172.488V91.9024Z" fill="#E6E6E6"/>
<path d="M134.161 140.547H142.76V91.9024H134.161V140.547Z" fill="#F0F0F0"/>
<path d="M176.585 98.4018H151.51V140.547H176.585V98.4018Z" fill="#F0F0F0"/>
<path d="M145.782 140.547H151.51V98.4018H145.782V140.547Z" fill="#FAFAFA"/>
<path d="M204.922 105.533H172.032V140.547H204.922V105.533Z" fill="#E6E6E6"/>
<path d="M163.611 140.547H172.032V105.533H163.611V140.547Z" fill="#FAFAFA"/>
<path d="M213.545 100.134H188.837V140.547H213.545V100.134Z" fill="#E6E6E6"/>
<path d="M181.706 140.547H188.85V100.134H181.706V140.547Z" fill="#F0F0F0"/>
<path d="M220.121 105.533H196.121V140.547H220.121V105.533Z" fill="#F0F0F0"/>
<path d="M191.354 140.547H196.108V105.533H191.354V140.547Z" fill="#FAFAFA"/>
<path d="M453.506 58.5707C444.73 59.7214 436.65 66.3978 439.394 75.4515C443.946 90.4482 422.096 89.0447 421.552 112.488C420.768 145.592 454.429 123.54 452.153 154.987C450.471 177.874 482.5 199.522 492.275 170.92C502.985 139.599 512.57 163.333 526.213 128.914C535.646 105.078 502.707 94.7727 515.048 89.1458C524.064 85.0742 531.246 76.2861 522.824 67.6497C511.356 55.8015 526.618 51.439 518.943 43.2199C511.267 35.0008 506.715 44.7246 493.274 36.8975C481.248 29.867 466.113 40.9818 466.34 49.8711C466.593 58.0649 462.332 57.4074 453.506 58.5707Z" fill="#E6E6E6"/>
<path d="M436.245 161.095C436.245 161.095 437.333 215.278 478.757 215.278C520.182 215.278 521.256 161.095 521.256 161.095H436.245Z" fill="#F0F0F0"/>
<path d="M144.151 50.8953H99.4766V69.7361H144.151V50.8953Z" fill="#F0F0F0"/>
<path d="M144.151 45.2052H98.0098V50.8953H144.151V45.2052Z" fill="#F0F0F0"/>
<path d="M144.151 50.8953H157.845V45.2052H144.151V50.8953Z" fill="#EBEBEB"/>
<path d="M144.151 69.7361H156.656V50.8953H144.151V69.7361Z" fill="#EBEBEB"/>
<path opacity="0.7" d="M156.656 50.8953H99.4766V52.6529H156.656V50.8953Z" fill="#E0E0E0"/>
<path d="M220.525 24.7838H149.993V69.7361H220.525V24.7838Z" fill="#F0F0F0"/>
<path d="M220.513 21.2686H147.691V24.7838H220.513V21.2686Z" fill="#F0F0F0"/>
<path d="M220.525 24.7712L242.148 24.7712V21.2559L220.525 21.2559V24.7712Z" fill="#EBEBEB"/>
<path d="M220.525 69.7234H240.264V24.7712H220.525V69.7234Z" fill="#EBEBEB"/>
<path opacity="0.7" d="M240.264 24.7838H149.993V26.8323H240.264V24.7838Z" fill="#E0E0E0"/>
<path d="M316.12 471.095C451.524 471.095 561.29 464.686 561.29 456.781C561.29 448.875 451.524 442.467 316.12 442.467C180.716 442.467 70.95 448.875 70.95 456.781C70.95 464.686 180.716 471.095 316.12 471.095Z" fill="#F5F5F5"/>
<path d="M434.273 275.846C434.167 275.85 434.063 275.814 433.982 275.745C433.934 275.707 433.894 275.66 433.864 275.606C433.834 275.552 433.815 275.493 433.808 275.432C433.801 275.371 433.806 275.309 433.823 275.25C433.84 275.191 433.868 275.136 433.906 275.088C442.935 263.568 442.1 250.506 441.051 233.979C440.684 228.213 440.304 222.245 440.267 215.67C440.203 204.289 444.717 185.891 449.118 168.075C454.58 145.769 460.22 122.692 455.44 117.635C446.956 108.606 418.151 119.114 402.813 130.026C390.244 138.979 380.318 137.234 362.286 134.047C357.57 133.213 352.17 132.277 346.126 131.417C322.101 128.016 319.496 131.784 315.88 136.994C315.184 137.993 314.451 139.03 313.54 140.104C313.497 140.149 313.445 140.185 313.387 140.209C313.33 140.233 313.268 140.246 313.205 140.246C313.143 140.246 313.081 140.233 313.023 140.209C312.966 140.185 312.914 140.149 312.87 140.104C312.786 140.013 312.739 139.894 312.739 139.769C312.739 139.645 312.786 139.525 312.87 139.434C313.684 138.465 314.444 137.452 315.146 136.399C318.94 130.912 321.709 126.941 346.316 130.418C352.411 131.291 357.772 132.227 362.501 133.061C380.28 136.197 390.067 137.929 402.32 129.205C418.29 117.824 447.221 107.405 456.186 116.939C461.244 122.364 455.832 144.656 450.054 168.252C445.716 185.954 441.202 204.365 441.278 215.619C441.278 222.169 441.695 228.112 442.062 233.866C443.124 250.607 443.959 263.821 434.715 275.593C434.672 275.672 434.607 275.737 434.529 275.781C434.451 275.826 434.363 275.848 434.273 275.846Z" fill="#263238"/>
<path d="M314.955 174.246C319.395 169.807 319.395 162.61 314.955 158.17C310.516 153.731 303.318 153.731 298.879 158.17C294.44 162.61 294.44 169.807 298.879 174.246C303.318 178.686 310.516 178.686 314.955 174.246Z" fill="white"/>
<path opacity="0.3" d="M314.955 174.246C319.395 169.807 319.395 162.61 314.955 158.17C310.516 153.731 303.318 153.731 298.879 158.17C294.44 162.61 294.44 169.807 298.879 174.246C303.318 178.686 310.516 178.686 314.955 174.246Z" fill="white"/>
<path d="M314.426 138.625C313.223 135.064 310.715 132.092 307.407 130.308C304.1 128.524 300.238 128.061 296.602 129.012C292.966 129.964 289.827 132.259 287.817 135.434C285.807 138.61 285.076 142.43 285.772 146.123L291.791 176.256L323.972 167.86L314.426 138.625Z" fill="white"/>
<path d="M319.913 141.204C319.913 142.873 319.419 144.503 318.492 145.89C317.565 147.277 316.248 148.358 314.707 148.997C313.166 149.635 311.47 149.802 309.834 149.476C308.198 149.151 306.695 148.348 305.516 147.168C304.336 145.989 303.533 144.486 303.207 142.85C302.882 141.214 303.049 139.518 303.687 137.977C304.326 136.436 305.407 135.119 306.794 134.192C308.181 133.265 309.811 132.77 311.479 132.77C312.587 132.769 313.685 132.986 314.709 133.409C315.733 133.832 316.663 134.453 317.447 135.237C318.23 136.02 318.852 136.951 319.275 137.975C319.698 138.999 319.915 140.096 319.913 141.204Z" fill="#263238"/>
<path d="M311.479 148.627C310.008 148.627 308.57 148.191 307.347 147.373C306.124 146.555 305.171 145.394 304.609 144.034C304.047 142.675 303.9 141.179 304.188 139.737C304.476 138.294 305.185 136.969 306.226 135.93C307.267 134.891 308.593 134.183 310.037 133.898C311.48 133.613 312.975 133.762 314.333 134.326C315.692 134.891 316.852 135.846 317.668 137.07C318.483 138.295 318.917 139.733 318.914 141.204C318.914 142.18 318.722 143.146 318.348 144.048C317.974 144.949 317.427 145.768 316.736 146.457C316.045 147.147 315.226 147.693 314.324 148.066C313.422 148.438 312.455 148.629 311.479 148.627ZM311.479 135.034C310.259 135.034 309.066 135.396 308.051 136.074C307.036 136.752 306.245 137.716 305.778 138.843C305.311 139.971 305.189 141.211 305.427 142.408C305.665 143.605 306.253 144.705 307.116 145.568C307.979 146.431 309.079 147.018 310.275 147.257C311.472 147.495 312.713 147.372 313.841 146.905C314.968 146.438 315.932 145.647 316.61 144.633C317.288 143.618 317.65 142.425 317.65 141.204C317.65 139.568 317 137.998 315.843 136.841C314.685 135.684 313.116 135.034 311.479 135.034Z" fill="white"/>
<path d="M311.479 142.469C311.174 142.472 310.878 142.366 310.646 142.168C310.414 141.971 310.261 141.696 310.215 141.394C310.19 141.23 310.197 141.062 310.237 140.9C310.277 140.739 310.348 140.587 310.447 140.453C310.545 140.319 310.67 140.206 310.812 140.12C310.955 140.034 311.113 139.977 311.277 139.953L483.942 113.538C484.277 113.487 484.619 113.572 484.891 113.774C485.164 113.975 485.346 114.277 485.396 114.612C485.446 114.948 485.361 115.289 485.16 115.562C484.958 115.835 484.656 116.016 484.321 116.067L311.669 142.444L311.479 142.469Z" fill="#263238"/>
<path d="M413.333 439.647H413.156C412.991 439.625 412.831 439.571 412.687 439.487C412.542 439.403 412.416 439.292 412.315 439.159C412.214 439.026 412.14 438.875 412.098 438.713C412.055 438.552 412.046 438.383 412.069 438.218L459.095 90.1827C459.142 89.8532 459.317 89.5556 459.582 89.3544C459.847 89.1532 460.181 89.0646 460.511 89.1079C460.843 89.152 461.143 89.3258 461.347 89.5913C461.551 89.8567 461.641 90.1922 461.598 90.5241L414.585 438.547C414.545 438.851 414.396 439.13 414.166 439.332C413.936 439.535 413.64 439.646 413.333 439.647Z" fill="#263238"/>
<path d="M461.611 119.025C461.611 120.041 461.31 121.033 460.746 121.878C460.182 122.722 459.38 123.38 458.442 123.768C457.504 124.157 456.472 124.259 455.476 124.061C454.48 123.863 453.565 123.374 452.847 122.656C452.129 121.938 451.64 121.023 451.442 120.027C451.244 119.031 451.346 117.999 451.734 117.061C452.123 116.123 452.781 115.321 453.625 114.757C454.469 114.193 455.462 113.892 456.477 113.892C457.839 113.892 459.145 114.433 460.107 115.395C461.07 116.358 461.611 117.664 461.611 119.025Z" fill="#263238"/>
<path d="M156.947 447.853L475.293 447.853V382.05L156.947 382.05V447.853Z" fill="white"/>
<path opacity="0.1" d="M156.947 447.853L475.293 447.853V382.05L156.947 382.05V447.853Z" fill="white"/>
<path d="M156.947 353.119H475.293L480.123 303.665C480.783 296.91 480.022 290.092 477.889 283.648C475.756 277.205 472.298 271.279 467.738 266.252C463.178 261.225 457.616 257.208 451.411 254.46C445.205 251.711 438.493 250.291 431.706 250.291H200.534C193.747 250.291 187.035 251.711 180.829 254.46C174.624 257.208 169.062 261.225 164.502 266.252C159.942 271.279 156.484 277.205 154.351 283.648C152.218 290.092 151.457 296.91 152.117 303.665L156.947 353.119Z" fill="white"/>
<path opacity="0.3" d="M156.947 353.119H475.293L480.123 303.665C480.783 296.91 480.022 290.092 477.889 283.648C475.756 277.205 472.298 271.279 467.738 266.252C463.178 261.225 457.616 257.208 451.411 254.46C445.205 251.711 438.493 250.291 431.706 250.291H200.534C193.747 250.291 187.035 251.711 180.829 254.46C174.624 257.208 169.062 261.225 164.502 266.252C159.942 271.279 156.484 277.205 154.351 283.648C152.218 290.092 151.457 296.91 152.117 303.665L156.947 353.119Z" fill="black"/>
<path opacity="0.9" d="M156.947 385.78L475.293 385.78V382.05L156.947 382.05V385.78Z" fill="white"/>
<path d="M156.947 382.05L475.293 382.05V347.315L156.947 347.315V382.05Z" fill="white"/>
<path opacity="0.2" d="M156.947 382.05L475.293 382.05V347.315L156.947 347.315V382.05Z" fill="black"/>
<path d="M479.744 293.068C475.326 293.069 470.954 293.973 466.899 295.727C462.844 297.48 459.191 300.045 456.164 303.263C453.138 306.482 450.802 310.286 449.301 314.441C447.8 318.596 447.165 323.015 447.436 327.424L453.759 430.973C453.942 434.02 455.283 436.882 457.506 438.973C459.73 441.065 462.668 442.229 465.721 442.227H493.691C496.744 442.226 499.682 441.062 501.907 438.971C504.132 436.88 505.476 434.02 505.665 430.973L511.988 327.424C512.258 323.02 511.626 318.607 510.129 314.456C508.631 310.305 506.301 306.504 503.282 303.286C500.262 300.069 496.616 297.503 492.568 295.746C488.521 293.988 484.156 293.077 479.744 293.068Z" fill="white"/>
<path opacity="0.1" d="M503.308 337.193C508.775 324.188 502.664 309.215 489.66 303.748C476.655 298.281 461.681 304.392 456.215 317.397C450.748 330.401 456.859 345.375 469.863 350.841C482.868 356.308 497.842 350.197 503.308 337.193Z" fill="white"/>
<path d="M473.864 453.48H485.623L487.457 442.227H472.03L473.864 453.48Z" fill="#263238"/>
<path d="M145.997 453.48H157.756L159.59 442.227H144.163L145.997 453.48Z" fill="#263238"/>
<path d="M152.496 293.068C148.078 293.069 143.707 293.973 139.652 295.727C135.597 297.48 131.943 300.045 128.917 303.263C125.89 306.482 123.554 310.286 122.053 314.441C120.552 318.596 119.918 323.015 120.189 327.424L126.511 430.973C126.701 434.02 128.045 436.88 130.27 438.971C132.495 441.062 135.433 442.226 138.486 442.227H166.456C169.509 442.229 172.447 441.065 174.67 438.973C176.894 436.882 178.234 434.02 178.418 430.973L184.74 327.424C185.011 323.02 184.378 318.607 182.881 314.456C181.384 310.305 179.054 306.504 176.034 303.286C173.014 300.069 169.369 297.503 165.321 295.746C161.273 293.988 156.909 293.077 152.496 293.068Z" fill="white"/>
<path opacity="0.1" d="M176.037 337.178C181.503 324.173 175.393 309.2 162.388 303.733C149.384 298.267 134.41 304.377 128.943 317.382C123.477 330.386 129.587 345.36 142.592 350.826C155.596 356.293 170.57 350.182 176.037 337.178Z" fill="white"/>
<path d="M227.606 218.679C229.313 219.741 231.311 220.93 233.183 222.043C235.054 223.155 236.976 224.293 238.949 225.381C242.805 227.581 246.713 229.655 250.632 231.703C254.552 233.752 258.51 235.497 262.481 237.128C266.31 238.714 270.249 240.024 274.266 241.048L272.698 240.896C276.263 241.022 280.348 240.985 284.343 240.896L296.483 240.58C304.613 240.378 312.82 240.163 321.013 240.239L322.151 249.381C318.13 250.43 314.097 251.315 310.05 252.163C306.004 253.01 301.958 253.781 297.886 254.502C293.814 255.223 289.705 255.88 285.57 256.424C281.435 256.968 277.313 257.499 272.698 257.688H272.179L271.117 257.511C266.086 256.674 261.136 255.404 256.323 253.718C251.689 252.135 247.139 250.316 242.692 248.268C238.266 246.27 233.992 244.057 229.781 241.743C227.695 240.58 225.608 239.391 223.56 238.139C221.512 236.888 219.526 235.611 217.364 234.194L227.606 218.679Z" fill="#FFC3BD"/>
<path d="M211.168 221.714C209.158 213.571 220.247 213.002 252.213 227.796L245.183 253.44C245.183 253.44 217.276 246.574 211.168 221.714Z" fill="white"/>
<path opacity="0.2" d="M224.003 229.313C221.309 229.313 218.73 231.21 216.58 233.878C224.9 246.169 238.734 251.442 243.501 252.947H243.665L244.019 253.035C239.126 236.306 231.4 229.44 224.003 229.313Z" fill="black"/>
<path d="M351.576 341.536L364.701 339.462L361.249 305.991L348.124 308.065L351.576 341.536Z" fill="#FFC3BD"/>
<path d="M365.296 331.926L349.641 332.154C349.369 332.167 349.111 332.278 348.914 332.466C348.717 332.654 348.593 332.907 348.567 333.178L346.556 346.215C346.506 346.518 346.52 346.829 346.599 347.126C346.677 347.423 346.818 347.701 347.011 347.94C347.205 348.179 347.447 348.374 347.722 348.513C347.996 348.651 348.297 348.73 348.604 348.744C353.764 348.566 359.239 348.175 365.738 348.086C369.734 348.023 379.584 348.314 385.11 348.238C390.636 348.162 391.078 342.067 388.79 341.549C378.535 339.235 370.872 335.947 367.47 332.697C366.873 332.169 366.093 331.892 365.296 331.926Z" fill="#263238"/>
<path d="M255.703 303.475C255.703 303.475 303.753 248.116 328.904 253.452C357.747 259.585 369.228 320.887 369.228 320.887L346.897 323.416C346.897 323.416 335.226 296.002 321.911 285.962C294.624 330.029 224.812 362.602 216.226 317.132C227.695 312.516 255.703 303.475 255.703 303.475Z" fill="#263238"/>
<path d="M371.39 321.279L343.534 326.729L341.435 317.536L370.493 311.252L371.39 321.279Z" fill="#263238"/>
<path d="M317.979 240.491L328.727 238.43L333.216 251.239C333.216 251.239 322.468 254.805 317.245 248.04L317.979 240.491Z" fill="#FFC3BD"/>
<path d="M341.131 241.01L343.901 250.291L333.216 251.239L328.727 238.43L341.131 241.01Z" fill="#FFC3BD"/>
<path d="M196.867 320.419C196.867 320.419 175.927 289.566 165.647 239.847C165.085 237.076 165.127 234.216 165.77 231.463C166.414 228.71 167.643 226.128 169.375 223.893C171.107 221.659 173.3 219.824 175.806 218.514C178.311 217.203 181.07 216.449 183.893 216.302C194.009 215.771 204.681 215.632 213.356 215.67C217.593 215.684 221.711 217.074 225.091 219.63C228.47 222.186 230.928 225.771 232.095 229.844C236.812 246.384 239.783 268.044 258.27 298.797C261.241 303.728 257.6 310.114 251.948 311.075L196.867 320.419Z" fill="white"/>
<path opacity="0.2" d="M165.381 233.802C172.45 223.939 178.759 222.548 180.555 223.105C196.892 228.264 179.291 273.279 176.635 278.299C172.024 265.725 168.351 252.825 165.647 239.707C165.253 237.765 165.163 235.773 165.381 233.802Z" fill="black"/>
<path opacity="0.2" d="M247.699 324.263C247.256 325.869 248.508 331.091 256.12 337.009C266.451 334.189 277.616 328.575 288.124 321.127C272.71 316.777 250.797 313.073 247.699 324.263Z" fill="black"/>
<path d="M183.767 184.614C187.054 193.567 191.265 209.739 186.169 216.226C192.455 221.679 200.623 224.461 208.93 223.977C219.425 223.636 217.288 219.438 213.849 215.72C203.644 213.988 202.595 205.389 203.075 198.232L183.767 184.614Z" fill="#FFC3BD"/>
<path opacity="0.2" d="M191.632 190.14L203.012 198.182C202.873 199.865 202.873 201.557 203.012 203.24C199.143 204.58 192.833 201.014 191.733 196.993C191.361 194.726 191.327 192.417 191.632 190.14Z" fill="black"/>
<path d="M204.846 174.776C206.894 178.696 210.764 180.707 213.495 179.291C216.226 177.874 216.77 173.537 214.759 169.617C212.749 165.697 208.842 163.687 206.11 165.116C203.379 166.545 202.772 170.869 204.846 174.776Z" fill="white"/>
<path d="M202.165 176.167C204.34 180.327 208.487 182.49 211.358 180.96C214.228 179.43 214.835 174.84 212.622 170.679C210.409 166.519 206.3 164.357 203.429 165.887C200.559 167.417 199.99 171.969 202.165 176.167Z" fill="white"/>
<path d="M205.364 172.576L210.561 171.059C210.561 171.059 207.058 165.356 207.362 160.715C207.665 156.075 208.551 152.509 199.522 152.711C190.494 152.914 185.474 161.853 205.364 172.576Z" fill="#263238"/>
<path d="M176.597 180.492C182.92 190.949 186.055 197.373 194.527 200.332C197.232 201.352 200.166 201.61 203.007 201.076C205.848 200.542 208.488 199.237 210.638 197.304C212.787 195.371 214.364 192.884 215.196 190.115C216.028 187.346 216.082 184.402 215.353 181.605C212.673 170.844 202.81 155.544 189.748 156.226C176.686 156.909 170.3 170.035 176.597 180.492Z" fill="#FFC3BD"/>
<path d="M175.548 170.629C185.436 169.061 202.405 163.118 200.218 151.32C198.738 143.392 186.384 145.832 183.779 149.841C179.725 155.312 174.602 159.902 168.719 163.333C162.701 166.696 160.791 172.981 175.548 170.629Z" fill="#263238"/>
<path d="M180.467 188.686L185.436 186.536C185.436 186.536 181.238 181.314 180.96 176.673C180.681 172.032 181.099 168.378 172.184 169.718C163.27 171.059 159.4 180.606 180.467 188.686Z" fill="#263238"/>
<path d="M179.139 183.514C179.056 183.515 178.974 183.499 178.898 183.466C178.821 183.433 178.753 183.385 178.696 183.324C171.906 176.648 170.857 170.174 170.844 166.886C170.844 163.826 171.678 161.069 173.057 159.679C173.115 159.619 173.185 159.572 173.262 159.54C173.339 159.508 173.422 159.491 173.506 159.491C173.589 159.491 173.672 159.508 173.749 159.54C173.826 159.572 173.896 159.619 173.955 159.679C174.07 159.797 174.135 159.956 174.135 160.121C174.135 160.287 174.07 160.445 173.955 160.564C172.588 162.375 171.931 164.624 172.108 166.886C172.108 169.946 173.12 176.041 179.581 182.401C179.641 182.46 179.688 182.53 179.72 182.607C179.752 182.684 179.768 182.767 179.768 182.85C179.768 182.934 179.752 183.016 179.72 183.093C179.688 183.17 179.641 183.24 179.581 183.299C179.527 183.364 179.46 183.417 179.383 183.454C179.307 183.491 179.224 183.512 179.139 183.514Z" fill="white"/>
<path d="M176.875 193.668C179.186 195.237 182.006 195.87 184.766 195.438C188.382 194.831 188.559 191.328 186.03 188.812C183.855 186.536 179.341 184.134 176.395 186.03C173.449 187.927 174.043 191.733 176.875 193.668Z" fill="#FFC3BD"/>
<path d="M185.284 185.689C188.243 189.343 188.584 193.971 186.043 196.032C183.501 198.093 179.05 196.804 176.091 193.149C173.133 189.495 172.791 184.88 175.333 182.818C177.874 180.757 182.338 182.085 185.284 185.689Z" fill="white"/>
<path d="M182.958 187.586C185.739 191.012 186.056 195.362 183.666 197.297C181.276 199.231 177.09 198.03 174.309 194.591C171.527 191.151 171.211 186.814 173.6 184.88C175.99 182.945 180.176 184.146 182.958 187.586Z" fill="white"/>
<path d="M191.038 177.533H190.089C190.262 176.315 190.885 175.205 191.834 174.422C192.075 174.197 192.365 174.031 192.681 173.937C192.997 173.843 193.33 173.823 193.655 173.879C193.929 173.947 194.185 174.076 194.404 174.255C194.623 174.434 194.799 174.66 194.92 174.915L194.072 175.358C194.015 175.224 193.929 175.104 193.819 175.008C193.71 174.912 193.58 174.841 193.44 174.802C193.251 174.781 193.059 174.803 192.88 174.866C192.7 174.93 192.537 175.033 192.403 175.168C191.694 175.78 191.213 176.613 191.038 177.533Z" fill="#263238"/>
<path d="M202.076 170.806C201.972 170.591 201.918 170.355 201.918 170.117C201.918 169.878 201.972 169.642 202.076 169.428C202.225 169.17 202.427 168.947 202.669 168.774C202.911 168.602 203.188 168.484 203.48 168.429C203.959 168.302 204.462 168.302 204.941 168.428C205.42 168.554 205.858 168.803 206.211 169.149L205.554 169.832C205.319 169.596 205.025 169.427 204.702 169.343C204.38 169.258 204.041 169.261 203.72 169.352C203.559 169.373 203.404 169.43 203.266 169.517C203.129 169.604 203.012 169.721 202.924 169.858C202.88 169.95 202.857 170.052 202.857 170.155C202.857 170.257 202.88 170.359 202.924 170.452L202.076 170.806Z" fill="#263238"/>
<path d="M200.104 173.373C200.104 173.373 204.795 177.495 208.323 178.899C207.488 181.086 204.441 181.668 204.441 181.668L200.104 173.373Z" fill="#ED847E"/>
<path d="M201.899 187.598C199.719 188.291 197.353 188.1 195.311 187.067C195.278 187.049 195.249 187.024 195.226 186.994C195.203 186.964 195.186 186.93 195.176 186.893C195.167 186.856 195.165 186.818 195.171 186.781C195.177 186.743 195.19 186.707 195.21 186.675C195.23 186.641 195.256 186.612 195.287 186.588C195.319 186.565 195.355 186.549 195.393 186.541C195.431 186.532 195.471 186.532 195.509 186.54C195.547 186.548 195.583 186.564 195.615 186.587C196.744 187.127 197.98 187.407 199.231 187.407C200.483 187.407 201.719 187.127 202.848 186.587C202.919 186.556 202.998 186.553 203.071 186.578C203.144 186.604 203.204 186.657 203.24 186.726C203.257 186.759 203.267 186.795 203.27 186.832C203.273 186.869 203.269 186.907 203.257 186.942C203.245 186.978 203.226 187.01 203.202 187.038C203.177 187.066 203.147 187.089 203.113 187.105C202.721 187.299 202.315 187.463 201.899 187.598Z" fill="#263238"/>
<path d="M186.233 175.295C186.132 175.314 186.029 175.314 185.929 175.295C185.852 175.283 185.778 175.255 185.712 175.214C185.646 175.173 185.589 175.119 185.544 175.055C185.5 174.991 185.468 174.919 185.451 174.843C185.435 174.767 185.434 174.689 185.449 174.612C185.599 173.719 185.969 172.877 186.525 172.162C187.082 171.447 187.806 170.881 188.635 170.515C188.781 170.459 188.944 170.46 189.089 170.519C189.235 170.577 189.353 170.689 189.419 170.831C189.45 170.901 189.466 170.976 189.466 171.052C189.467 171.127 189.452 171.203 189.422 171.273C189.392 171.342 189.349 171.405 189.294 171.458C189.239 171.51 189.174 171.551 189.103 171.577C188.444 171.872 187.868 172.325 187.427 172.897C186.985 173.468 186.693 174.14 186.574 174.852C186.56 174.949 186.521 175.041 186.461 175.118C186.401 175.196 186.323 175.257 186.233 175.295Z" fill="#263238"/>
<path d="M206.173 165.963C206.087 166.006 205.992 166.029 205.895 166.029C205.799 166.029 205.703 166.006 205.617 165.963C204.965 165.604 204.24 165.399 203.497 165.364C202.754 165.329 202.013 165.465 201.33 165.761C201.192 165.835 201.031 165.852 200.88 165.81C200.729 165.767 200.601 165.668 200.521 165.533C200.481 165.47 200.454 165.399 200.443 165.325C200.431 165.251 200.435 165.176 200.454 165.103C200.473 165.031 200.507 164.963 200.553 164.904C200.599 164.846 200.657 164.797 200.723 164.762C201.579 164.375 202.513 164.191 203.452 164.224C204.39 164.257 205.309 164.506 206.135 164.951C206.205 164.982 206.268 165.027 206.32 165.084C206.372 165.14 206.412 165.207 206.436 165.279C206.461 165.352 206.471 165.428 206.465 165.505C206.459 165.581 206.437 165.655 206.401 165.723C206.353 165.826 206.273 165.91 206.173 165.963Z" fill="#263238"/>
<path d="M348.352 452.899L359.58 446.071L343.724 415.963L332.495 422.791L348.352 452.899Z" fill="#FFC3BD"/>
<path d="M355.015 436.739L341.941 443.276C341.718 443.408 341.551 443.618 341.472 443.865C341.393 444.112 341.406 444.379 341.511 444.616L345.696 457.059C345.771 457.351 345.907 457.624 346.094 457.86C346.281 458.097 346.515 458.291 346.782 458.432C347.049 458.572 347.342 458.656 347.643 458.676C347.944 458.697 348.245 458.654 348.529 458.551C352.689 456.363 355.597 454.53 360.895 451.887C364.158 450.256 374.21 445.742 378.712 443.491C383.213 441.24 380.861 435.626 378.712 436.068C369.253 438.041 361.376 438.18 357.216 436.663C356.863 436.523 356.486 436.457 356.108 436.47C355.729 436.483 355.357 436.575 355.015 436.739Z" fill="#263238"/>
<path d="M245.575 312.162C245.575 312.162 270.004 315.526 305.587 338.881C330.231 355.066 351.74 421.489 351.74 421.489L332.47 434.652C332.47 434.652 307.977 381.329 287.467 361.641C220.07 345.595 200.218 366.573 196.867 320.432C208.778 317.119 245.575 312.162 245.575 312.162Z" fill="#263238"/>
<path d="M356.368 424.41L330.99 437.143L326.501 428.848L352.815 415.002L356.368 424.41Z" fill="#263238"/>
<path d="M182.49 238.772C180.024 246.751 177.432 254.982 175.27 263.037C174.157 267.071 173.145 271.117 172.285 275.05C171.881 277.01 171.514 278.957 171.261 280.79C171.007 282.358 170.876 283.944 170.869 285.532C170.869 285.81 170.869 285.975 170.869 286.051C170.869 286.126 170.869 286.051 170.869 285.987C170.869 285.874 170.755 285.709 170.679 285.57C170.604 285.431 170.414 285.09 170.3 284.925C169.845 284.318 169.744 284.344 169.756 284.369C169.896 284.517 170.049 284.652 170.212 284.773C171.608 285.741 173.084 286.587 174.625 287.302C178.127 288.997 182.009 290.628 185.929 292.145C193.781 295.231 201.95 298.088 209.954 301.111L207.931 310.101C199.101 309.182 190.338 307.708 181.693 305.688C177.216 304.677 172.8 303.41 168.467 301.895C165.969 301.03 163.556 299.938 161.259 298.632C160.506 298.173 159.78 297.671 159.084 297.127C158.021 296.296 157.088 295.312 156.315 294.207C156.025 293.777 155.763 293.33 155.531 292.866C155.405 292.601 155.278 292.322 155.177 292.07L155.013 291.64C154.785 291.045 154.646 290.539 154.494 290.021C154.273 289.135 154.108 288.235 154.001 287.328C153.692 284.586 153.659 281.82 153.9 279.071C154.089 276.542 154.393 274.253 154.734 271.952C155.43 267.336 156.378 262.923 157.39 258.548C159.452 249.869 161.959 241.301 164.901 232.879L182.49 238.772Z" fill="#FFC3BD"/>
<path d="M179.316 217.099C176.787 217.781 165.318 219.501 157.175 247.535L184.728 258.283C184.728 258.283 203.809 210.549 179.316 217.099Z" fill="white"/>
<path d="M209.638 300.82L219.311 305.637L210.46 316.322C210.46 316.322 200.344 309.823 202.19 304.322L205.857 301.262C206.378 300.832 207.012 300.561 207.682 300.483C208.353 300.404 209.032 300.521 209.638 300.82Z" fill="#FFC3BD"/>
<path d="M228.049 315.361L218.388 323.252L210.409 316.322L219.311 305.637L228.049 315.361Z" fill="#FFC3BD"/>
</svg>
