<svg width="135" height="79" viewBox="0 0 135 79" fill="none" xmlns="http://www.w3.org/2000/svg">
<path d="M20.448 56.84C20.448 58.504 20.576 59.72 20.832 60.488C21.088 61.192 21.568 61.672 22.272 61.928C23.04 62.184 24.256 62.312 25.92 62.312H29.184C34.176 62.312 38.496 61 42.144 58.376C45.792 55.688 48.224 52.072 49.44 47.528C49.44 47.4 49.568 47.336 49.824 47.336C49.952 47.336 50.08 47.4 50.208 47.528C50.4 47.592 50.496 47.656 50.496 47.72C49.92 54.056 49.632 59.336 49.632 63.56C49.632 64.072 49.504 64.456 49.248 64.712C49.056 64.904 48.704 65 48.192 65H2.88C2.752 65 2.688 64.808 2.688 64.424C2.688 64.04 2.752 63.848 2.88 63.848C4.928 63.848 6.4 63.688 7.296 63.368C8.256 63.048 8.896 62.44 9.216 61.544C9.6 60.584 9.792 59.144 9.792 57.224V12.776C9.792 10.856 9.6 9.448 9.216 8.552C8.896 7.656 8.256 7.04799 7.296 6.72799C6.336 6.344 4.864 6.152 2.88 6.152C2.752 6.152 2.688 5.96 2.688 5.576C2.688 5.192 2.752 5 2.88 5L7.776 5.096C10.72 5.224 13.152 5.288 15.072 5.288C16.992 5.288 19.424 5.224 22.368 5.096L27.264 5C27.456 5 27.552 5.192 27.552 5.576C27.552 5.96 27.456 6.152 27.264 6.152C25.28 6.152 23.808 6.344 22.848 6.72799C21.888 7.04799 21.248 7.688 20.928 8.648C20.608 9.544 20.448 10.952 20.448 12.872V56.84Z" fill="#27AE60"/>
<path d="M48.4 36.48C46.72 36.48 45.2667 36.1333 44.04 35.44C42.8133 34.72 41.88 33.7733 41.24 32.6C40.6 31.4 40.28 30.1067 40.28 28.72C40.28 27.1733 40.6667 25.7467 41.44 24.44C42.2133 23.1333 43.28 22.1067 44.64 21.36C46.0267 20.5867 47.5867 20.2 49.32 20.2C50.9733 20.2 52.2533 20.5733 53.16 21.32C54.0667 22.0667 54.52 23.2267 54.52 24.8C54.52 25.6267 54.3733 26.04 54.08 26.04H50.24C50.2933 24.4133 50.1333 23.1733 49.76 22.32C49.3867 21.44 48.7333 21 47.8 21C46.7333 21 45.88 21.5467 45.24 22.64C44.6267 23.7333 44.32 25.1867 44.32 27C44.32 29.3467 44.8533 31.1867 45.92 32.52C47.0133 33.8533 48.5733 34.52 50.6 34.52C51.32 34.52 51.9333 34.44 52.44 34.28C52.9467 34.0933 53.6133 33.8 54.44 33.4L54.52 33.36C54.5733 33.36 54.6267 33.4133 54.68 33.52C54.76 33.6267 54.7733 33.7067 54.72 33.76C53.7333 34.72 52.7333 35.4133 51.72 35.84C50.7067 36.2667 49.6 36.48 48.4 36.48ZM42.88 25.32L51.64 25.16V26.04L42.92 26.08L42.88 25.32ZM68.4006 36.24C68.294 36.2933 68.1606 36.32 68.0006 36.32C67.4673 36.32 66.974 35.9867 66.5206 35.32C66.0673 34.6267 65.8406 33.72 65.8406 32.6V25.8C65.8406 24.0933 65.694 22.8533 65.4006 22.08C65.134 21.3067 64.6673 20.92 64.0006 20.92C62.5873 20.92 61.7873 22.0133 61.6006 24.2C61.5206 25 61.2806 25.5733 60.8806 25.92C60.5073 26.2667 59.974 26.44 59.2806 26.44C58.614 26.44 58.1206 26.3067 57.8006 26.04C57.5073 25.7467 57.3606 25.3733 57.3606 24.92C57.3606 24.12 57.8273 23.36 58.7606 22.64C59.694 21.8933 60.814 21.2933 62.1206 20.84C63.454 20.3867 64.6273 20.16 65.6406 20.16C66.814 20.16 67.7606 20.5333 68.4806 21.28C69.2273 22 69.6006 23.1067 69.6006 24.6V31.68C69.6006 32.4533 69.734 33.0533 70.0006 33.48C70.294 33.9067 70.694 34.12 71.2006 34.12C71.574 34.12 71.9606 34.0267 72.3606 33.84H72.4006C72.5073 33.84 72.574 33.9067 72.6006 34.04C72.654 34.1467 72.6273 34.2267 72.5206 34.28L68.4006 36.24ZM60.7206 36.28C59.574 36.28 58.7073 36.0267 58.1206 35.52C57.534 35.0133 57.2406 34.3067 57.2406 33.4C57.2406 32.68 57.414 32.1067 57.7606 31.68C58.1073 31.2267 58.534 30.88 59.0406 30.64C59.574 30.3733 60.3073 30.08 61.2406 29.76L62.2406 29.4L66.2406 27.92L66.4006 28.52L64.1206 29.56C64.0406 29.5867 63.774 29.6933 63.3206 29.88C62.8673 30.04 62.4673 30.32 62.1206 30.72C61.8006 31.12 61.6406 31.5867 61.6406 32.12C61.6406 32.76 61.8406 33.2667 62.2406 33.64C62.6673 33.9867 63.1473 34.16 63.6806 34.16C64.1073 34.16 64.5473 34.0133 65.0006 33.72L67.0006 32.36L67.0406 33L64.2406 35C63.6273 35.4533 63.054 35.7867 62.5206 36C61.9873 36.1867 61.3873 36.28 60.7206 36.28ZM78.5966 24.64C80.0632 22.96 81.2366 21.8 82.1166 21.16C83.0232 20.4933 83.7966 20.16 84.4366 20.16C85.0499 20.16 85.6366 20.3867 86.1966 20.84C86.7832 21.2667 87.0766 21.7867 87.0766 22.4C87.0766 22.96 86.9032 23.4267 86.5566 23.8C86.2099 24.1467 85.7566 24.32 85.1966 24.32C84.7966 24.32 84.4632 24.24 84.1966 24.08C83.9566 23.92 83.7032 23.68 83.4366 23.36C83.1966 23.0933 82.9832 22.9067 82.7966 22.8C82.6366 22.6667 82.4366 22.6 82.1966 22.6C81.9032 22.6 81.5299 22.76 81.0766 23.08C80.6499 23.4 79.9299 24.0933 78.9166 25.16L78.5966 24.64ZM74.0366 36C73.9566 36 73.9166 35.92 73.9166 35.76C73.9166 35.6 73.9566 35.52 74.0366 35.52C74.8632 35.52 75.4232 35.3333 75.7166 34.96C76.0099 34.56 76.1566 33.8267 76.1566 32.76V25.24C76.1566 24.4133 76.0499 23.8133 75.8366 23.44C75.6499 23.04 75.3432 22.84 74.9166 22.84C74.4632 22.84 73.8232 23.0267 72.9966 23.4H72.9166C72.8366 23.4 72.7699 23.3333 72.7166 23.2C72.6899 23.0667 72.7032 22.9867 72.7566 22.96L78.3166 20.24C78.4766 20.1867 78.5699 20.16 78.5966 20.16C78.9166 20.16 79.2099 20.5067 79.4766 21.2C79.7699 21.8667 79.9166 22.76 79.9166 23.88V32.76C79.9166 33.8267 80.1699 34.56 80.6766 34.96C81.1832 35.3333 82.1166 35.52 83.4766 35.52C83.5832 35.52 83.6366 35.6 83.6366 35.76C83.6366 35.92 83.5832 36 83.4766 36C82.5432 36 81.8099 35.9867 81.2766 35.96L78.0366 35.92L75.6766 35.96C75.2766 35.9867 74.7299 36 74.0366 36ZM99.9528 36C99.8728 36 99.8328 35.92 99.8328 35.76C99.8328 35.6 99.8728 35.52 99.9528 35.52C100.779 35.52 101.339 35.3333 101.633 34.96C101.926 34.56 102.073 33.8267 102.073 32.76V27C102.073 25.56 101.806 24.4933 101.273 23.8C100.766 23.1067 99.9528 22.76 98.8328 22.76C98.0061 22.76 97.1661 22.9733 96.3128 23.4C95.4861 23.8 94.8328 24.3333 94.3528 25L94.1528 24.52C95.1128 23.1333 96.1795 22.0533 97.3528 21.28C98.5528 20.48 99.8195 20.08 101.153 20.08C102.593 20.08 103.726 20.5467 104.553 21.48C105.406 22.3867 105.833 23.5867 105.833 25.08V32.76C105.833 33.8267 105.979 34.56 106.273 34.96C106.593 35.3333 107.166 35.52 107.993 35.52C108.073 35.52 108.113 35.6 108.113 35.76C108.113 35.92 108.073 36 107.993 36C107.299 36 106.753 35.9867 106.353 35.96L103.953 35.92L101.633 35.96C101.206 35.9867 100.646 36 99.9528 36ZM89.1928 36C89.1128 36 89.0728 35.92 89.0728 35.76C89.0728 35.6 89.1128 35.52 89.1928 35.52C90.0195 35.52 90.5795 35.3333 90.8728 34.96C91.1661 34.56 91.3128 33.8267 91.3128 32.76V25.24C91.3128 24.4133 91.2061 23.8133 90.9928 23.44C90.8061 23.04 90.4995 22.84 90.0728 22.84C89.6195 22.84 88.9795 23.0267 88.1528 23.4H88.0728C87.9928 23.4 87.9261 23.3333 87.8728 23.2C87.8461 23.0667 87.8595 22.9867 87.9128 22.96L93.4728 20.24C93.6328 20.1867 93.7261 20.16 93.7528 20.16C94.0728 20.16 94.3661 20.5067 94.6328 21.2C94.9261 21.8667 95.0728 22.76 95.0728 23.88V32.76C95.0728 33.8267 95.2195 34.56 95.5128 34.96C95.8328 35.3333 96.4061 35.52 97.2328 35.52C97.3128 35.52 97.3528 35.6 97.3528 35.76C97.3528 35.92 97.3128 36 97.2328 36C96.5395 36 95.9928 35.9867 95.5928 35.96L93.1928 35.92L90.8328 35.96C90.4328 35.9867 89.8861 36 89.1928 36Z" fill="#27AE60"/>
<path d="M62.96 44.04C62.96 45 63.2 45.8533 63.68 46.6C64.1867 47.3467 64.8 48 65.52 48.56C66.24 49.12 67.2133 49.8 68.44 50.6C69.7733 51.4533 70.84 52.2 71.64 52.84C72.44 53.48 73.12 54.2667 73.68 55.2C74.24 56.1067 74.52 57.16 74.52 58.36C74.52 59.7467 74.1467 60.9867 73.4 62.08C72.6533 63.1467 71.6133 63.9867 70.28 64.6C68.9733 65.1867 67.5067 65.48 65.88 65.48C64.7067 65.48 63.4533 65.32 62.12 65C60.8133 64.6533 59.9333 64.28 59.48 63.88C59.3467 63.7733 59.24 63.68 59.16 63.6C59.1067 63.4933 59.08 63.3333 59.08 63.12L58.96 56.76V56.72C58.96 56.6133 59.0267 56.56 59.16 56.56C59.2933 56.5333 59.3733 56.5733 59.4 56.68C60.2 58.3067 60.8933 59.6267 61.48 60.64C62.0933 61.6533 62.8533 62.5467 63.76 63.32C64.6933 64.0933 65.7467 64.48 66.92 64.48C67.9867 64.48 68.8667 64.2 69.56 63.64C70.2533 63.0533 70.6 62.0667 70.6 60.68C70.6 59.5067 70.3333 58.48 69.8 57.6C69.2933 56.72 68.6667 55.9733 67.92 55.36C67.1733 54.7467 66.1467 54.0133 64.84 53.16C63.56 52.3333 62.56 51.6267 61.84 51.04C61.1467 50.4533 60.5467 49.7467 60.04 48.92C59.5333 48.0933 59.28 47.12 59.28 46C59.28 44.5867 59.68 43.4 60.48 42.44C61.3067 41.4533 62.36 40.7333 63.64 40.28C64.92 39.8 66.2667 39.56 67.68 39.56C68.6133 39.56 69.56 39.6533 70.52 39.84C71.48 40 72.2533 40.2 72.84 40.44C73.08 40.5467 73.24 40.6667 73.32 40.8C73.4 40.9067 73.44 41.0533 73.44 41.24V47.12C73.44 47.2 73.3733 47.2667 73.24 47.32C73.1067 47.3467 73.0267 47.32 73 47.24L72.68 46.48C72.0133 44.8 71.2267 43.3733 70.32 42.2C69.44 41.0267 68.2 40.44 66.6 40.44C65.5333 40.44 64.6533 40.7467 63.96 41.36C63.2933 41.9733 62.96 42.8667 62.96 44.04ZM88.9059 65C88.8259 65 88.7859 64.92 88.7859 64.76C88.7859 64.6 88.8259 64.52 88.9059 64.52C89.7326 64.52 90.2926 64.3333 90.5859 63.96C90.8793 63.56 91.0259 62.8267 91.0259 61.76V56C91.0259 54.56 90.7593 53.4933 90.2259 52.8C89.7193 52.1067 88.9059 51.76 87.7859 51.76C86.9593 51.76 86.1193 51.9733 85.2659 52.4C84.4393 52.8 83.7859 53.3333 83.3059 54L83.1059 53.52C84.0659 52.1333 85.1326 51.0533 86.3059 50.28C87.5059 49.48 88.7726 49.08 90.1059 49.08C91.5459 49.08 92.6793 49.5467 93.5059 50.48C94.3593 51.3867 94.7859 52.5867 94.7859 54.08V61.76C94.7859 62.8267 94.9326 63.56 95.2259 63.96C95.5459 64.3333 96.1193 64.52 96.9459 64.52C97.0259 64.52 97.0659 64.6 97.0659 64.76C97.0659 64.92 97.0259 65 96.9459 65C96.2526 65 95.7059 64.9867 95.3059 64.96L92.9059 64.92L90.5859 64.96C90.1593 64.9867 89.5993 65 88.9059 65ZM78.1459 65C78.0659 65 78.0259 64.92 78.0259 64.76C78.0259 64.6 78.0659 64.52 78.1459 64.52C78.9726 64.52 79.5326 64.3333 79.8259 63.96C80.1193 63.56 80.2659 62.8267 80.2659 61.76V54.24C80.2659 53.4133 80.1593 52.8133 79.9459 52.44C79.7593 52.04 79.4526 51.84 79.0259 51.84C78.5726 51.84 77.9326 52.0267 77.1059 52.4H77.0259C76.9459 52.4 76.8793 52.3333 76.8259 52.2C76.7993 52.0667 76.8126 51.9867 76.8659 51.96L82.4259 49.24C82.5859 49.1867 82.6793 49.16 82.7059 49.16C83.0259 49.16 83.3193 49.5067 83.5859 50.2C83.8793 50.8667 84.0259 51.76 84.0259 52.88V61.76C84.0259 62.8267 84.1726 63.56 84.4659 63.96C84.7859 64.3333 85.3593 64.52 86.1859 64.52C86.2659 64.52 86.3059 64.6 86.3059 64.76C86.3059 64.92 86.2659 65 86.1859 65C85.4926 65 84.9459 64.9867 84.5459 64.96L82.1459 64.92L79.7859 64.96C79.3859 64.9867 78.8393 65 78.1459 65ZM110.401 65.24C110.294 65.2933 110.161 65.32 110.001 65.32C109.467 65.32 108.974 64.9867 108.521 64.32C108.067 63.6267 107.841 62.72 107.841 61.6V54.8C107.841 53.0933 107.694 51.8533 107.401 51.08C107.134 50.3067 106.667 49.92 106.001 49.92C104.587 49.92 103.787 51.0133 103.601 53.2C103.521 54 103.281 54.5733 102.881 54.92C102.507 55.2667 101.974 55.44 101.281 55.44C100.614 55.44 100.121 55.3067 99.8006 55.04C99.5073 54.7467 99.3606 54.3733 99.3606 53.92C99.3606 53.12 99.8273 52.36 100.761 51.64C101.694 50.8933 102.814 50.2933 104.121 49.84C105.454 49.3867 106.627 49.16 107.641 49.16C108.814 49.16 109.761 49.5333 110.481 50.28C111.227 51 111.601 52.1067 111.601 53.6V60.68C111.601 61.4533 111.734 62.0533 112.001 62.48C112.294 62.9067 112.694 63.12 113.201 63.12C113.574 63.12 113.961 63.0267 114.361 62.84H114.401C114.507 62.84 114.574 62.9067 114.601 63.04C114.654 63.1467 114.627 63.2267 114.521 63.28L110.401 65.24ZM102.721 65.28C101.574 65.28 100.707 65.0267 100.121 64.52C99.534 64.0133 99.2406 63.3067 99.2406 62.4C99.2406 61.68 99.414 61.1067 99.7606 60.68C100.107 60.2267 100.534 59.88 101.041 59.64C101.574 59.3733 102.307 59.08 103.241 58.76L104.241 58.4L108.241 56.92L108.401 57.52L106.121 58.56C106.041 58.5867 105.774 58.6933 105.321 58.88C104.867 59.04 104.467 59.32 104.121 59.72C103.801 60.12 103.641 60.5867 103.641 61.12C103.641 61.76 103.841 62.2667 104.241 62.64C104.667 62.9867 105.147 63.16 105.681 63.16C106.107 63.16 106.547 63.0133 107.001 62.72L109.001 61.36L109.041 62L106.241 64C105.627 64.4533 105.054 64.7867 104.521 65C103.987 65.1867 103.387 65.28 102.721 65.28ZM115.517 76C115.437 76 115.397 75.92 115.397 75.76C115.397 75.6 115.437 75.52 115.517 75.52C116.157 75.52 116.623 75.44 116.917 75.28C117.237 75.1467 117.45 74.8933 117.557 74.52C117.69 74.1467 117.757 73.56 117.757 72.76V54.24C117.757 53.3867 117.663 52.7733 117.477 52.4C117.29 52.0267 116.957 51.84 116.477 51.84C116.05 51.84 115.437 52.0267 114.637 52.4H114.557C114.477 52.4 114.41 52.3333 114.357 52.2C114.277 52.0667 114.263 51.9867 114.317 51.96L119.997 49.2C120.05 49.1733 120.117 49.16 120.197 49.16C120.517 49.16 120.81 49.5067 121.077 50.2C121.343 50.8667 121.477 51.76 121.477 52.88V72.76C121.477 73.56 121.557 74.1467 121.717 74.52C121.903 74.8933 122.237 75.1467 122.717 75.28C123.223 75.44 123.997 75.52 125.037 75.52C125.117 75.52 125.157 75.6 125.157 75.76C125.157 75.92 125.117 76 125.037 76C124.05 76 123.277 75.9867 122.717 75.96L119.557 75.92L117.197 75.96C116.797 75.9867 116.237 76 115.517 76ZM124.917 65.52C123.957 65.52 123.117 65.44 122.397 65.28C121.677 65.1467 120.757 64.8933 119.637 64.52L121.037 62C121.703 62.8267 122.37 63.4533 123.037 63.88C123.73 64.3067 124.61 64.52 125.677 64.52C128.37 64.52 129.717 62.2267 129.717 57.64C129.717 55.6133 129.237 54.0533 128.277 52.96C127.343 51.84 126.17 51.28 124.757 51.28C123.823 51.28 123.01 51.5067 122.317 51.96C121.623 52.3867 120.877 53.0533 120.077 53.96L119.677 53.48C121.037 51.9333 122.33 50.8133 123.557 50.12C124.81 49.4 126.09 49.04 127.397 49.04C128.517 49.04 129.557 49.3333 130.517 49.92C131.503 50.5067 132.29 51.36 132.877 52.48C133.463 53.6 133.757 54.9067 133.757 56.4C133.757 58.5333 133.317 60.2933 132.437 61.68C131.557 63.04 130.437 64.0267 129.077 64.64C127.743 65.2267 126.357 65.52 124.917 65.52Z" fill="#27AE60"/>
</svg>
