<svg width="134" height="116" viewBox="0 0 134 116" fill="none" xmlns="http://www.w3.org/2000/svg">
<path d="M20.448 80.84C20.448 82.504 20.576 83.72 20.832 84.488C21.088 85.192 21.568 85.672 22.272 85.928C23.04 86.184 24.256 86.312 25.92 86.312H29.184C34.176 86.312 38.496 85 42.144 82.376C45.792 79.688 48.224 76.072 49.44 71.528C49.44 71.4 49.568 71.336 49.824 71.336C49.952 71.336 50.08 71.4 50.208 71.528C50.4 71.592 50.496 71.656 50.496 71.72C49.92 78.056 49.632 83.336 49.632 87.56C49.632 88.072 49.504 88.456 49.248 88.712C49.056 88.904 48.704 89 48.192 89H2.88C2.752 89 2.688 88.808 2.688 88.424C2.688 88.04 2.752 87.848 2.88 87.848C4.928 87.848 6.4 87.688 7.296 87.368C8.256 87.048 8.896 86.44 9.216 85.544C9.6 84.584 9.792 83.144 9.792 81.224V36.776C9.792 34.856 9.6 33.448 9.216 32.552C8.896 31.656 8.256 31.048 7.296 30.728C6.336 30.344 4.864 30.152 2.88 30.152C2.752 30.152 2.688 29.96 2.688 29.576C2.688 29.192 2.752 29 2.88 29L7.776 29.096C10.72 29.224 13.152 29.288 15.072 29.288C16.992 29.288 19.424 29.224 22.368 29.096L27.264 29C27.456 29 27.552 29.192 27.552 29.576C27.552 29.96 27.456 30.152 27.264 30.152C25.28 30.152 23.808 30.344 22.848 30.728C21.888 31.048 21.248 31.688 20.928 32.648C20.608 33.544 20.448 34.952 20.448 36.872V80.84Z" fill="white"/>
<path d="M46.4 51.48C44.72 51.48 43.2667 51.1333 42.04 50.44C40.8133 49.72 39.88 48.7733 39.24 47.6C38.6 46.4 38.28 45.1067 38.28 43.72C38.28 42.1733 38.6667 40.7467 39.44 39.44C40.2133 38.1333 41.28 37.1067 42.64 36.36C44.0267 35.5867 45.5867 35.2 47.32 35.2C48.9733 35.2 50.2533 35.5733 51.16 36.32C52.0667 37.0667 52.52 38.2267 52.52 39.8C52.52 40.6267 52.3733 41.04 52.08 41.04H48.24C48.2933 39.4133 48.1333 38.1733 47.76 37.32C47.3867 36.44 46.7333 36 45.8 36C44.7333 36 43.88 36.5467 43.24 37.64C42.6267 38.7333 42.32 40.1867 42.32 42C42.32 44.3467 42.8533 46.1867 43.92 47.52C45.0133 48.8533 46.5733 49.52 48.6 49.52C49.32 49.52 49.9333 49.44 50.44 49.28C50.9467 49.0933 51.6133 48.8 52.44 48.4L52.52 48.36C52.5733 48.36 52.6267 48.4133 52.68 48.52C52.76 48.6267 52.7733 48.7067 52.72 48.76C51.7333 49.72 50.7333 50.4133 49.72 50.84C48.7067 51.2667 47.6 51.48 46.4 51.48ZM40.88 40.32L49.64 40.16V41.04L40.92 41.08L40.88 40.32ZM66.4006 51.24C66.294 51.2933 66.1606 51.32 66.0006 51.32C65.4673 51.32 64.974 50.9867 64.5206 50.32C64.0673 49.6267 63.8406 48.72 63.8406 47.6V40.8C63.8406 39.0933 63.694 37.8533 63.4006 37.08C63.134 36.3067 62.6673 35.92 62.0006 35.92C60.5873 35.92 59.7873 37.0133 59.6006 39.2C59.5206 40 59.2806 40.5733 58.8806 40.92C58.5073 41.2667 57.974 41.44 57.2806 41.44C56.614 41.44 56.1206 41.3067 55.8006 41.04C55.5073 40.7467 55.3606 40.3733 55.3606 39.92C55.3606 39.12 55.8273 38.36 56.7606 37.64C57.694 36.8933 58.814 36.2933 60.1206 35.84C61.454 35.3867 62.6273 35.16 63.6406 35.16C64.814 35.16 65.7606 35.5333 66.4806 36.28C67.2273 37 67.6006 38.1067 67.6006 39.6V46.68C67.6006 47.4533 67.734 48.0533 68.0006 48.48C68.294 48.9067 68.694 49.12 69.2006 49.12C69.574 49.12 69.9606 49.0267 70.3606 48.84H70.4006C70.5073 48.84 70.574 48.9067 70.6006 49.04C70.654 49.1467 70.6273 49.2267 70.5206 49.28L66.4006 51.24ZM58.7206 51.28C57.574 51.28 56.7073 51.0267 56.1206 50.52C55.534 50.0133 55.2406 49.3067 55.2406 48.4C55.2406 47.68 55.414 47.1067 55.7606 46.68C56.1073 46.2267 56.534 45.88 57.0406 45.64C57.574 45.3733 58.3073 45.08 59.2406 44.76L60.2406 44.4L64.2406 42.92L64.4006 43.52L62.1206 44.56C62.0406 44.5867 61.774 44.6933 61.3206 44.88C60.8673 45.04 60.4673 45.32 60.1206 45.72C59.8006 46.12 59.6406 46.5867 59.6406 47.12C59.6406 47.76 59.8406 48.2667 60.2406 48.64C60.6673 48.9867 61.1473 49.16 61.6806 49.16C62.1073 49.16 62.5473 49.0133 63.0006 48.72L65.0006 47.36L65.0406 48L62.2406 50C61.6273 50.4533 61.054 50.7867 60.5206 51C59.9873 51.1867 59.3873 51.28 58.7206 51.28ZM76.5966 39.64C78.0632 37.96 79.2366 36.8 80.1166 36.16C81.0232 35.4933 81.7966 35.16 82.4366 35.16C83.0499 35.16 83.6366 35.3867 84.1966 35.84C84.7832 36.2667 85.0766 36.7867 85.0766 37.4C85.0766 37.96 84.9032 38.4267 84.5566 38.8C84.2099 39.1467 83.7566 39.32 83.1966 39.32C82.7966 39.32 82.4632 39.24 82.1966 39.08C81.9566 38.92 81.7032 38.68 81.4366 38.36C81.1966 38.0933 80.9832 37.9067 80.7966 37.8C80.6366 37.6667 80.4366 37.6 80.1966 37.6C79.9032 37.6 79.5299 37.76 79.0766 38.08C78.6499 38.4 77.9299 39.0933 76.9166 40.16L76.5966 39.64ZM72.0366 51C71.9566 51 71.9166 50.92 71.9166 50.76C71.9166 50.6 71.9566 50.52 72.0366 50.52C72.8632 50.52 73.4232 50.3333 73.7166 49.96C74.0099 49.56 74.1566 48.8267 74.1566 47.76V40.24C74.1566 39.4133 74.0499 38.8133 73.8366 38.44C73.6499 38.04 73.3432 37.84 72.9166 37.84C72.4632 37.84 71.8232 38.0267 70.9966 38.4H70.9166C70.8366 38.4 70.7699 38.3333 70.7166 38.2C70.6899 38.0667 70.7032 37.9867 70.7566 37.96L76.3166 35.24C76.4766 35.1867 76.5699 35.16 76.5966 35.16C76.9166 35.16 77.2099 35.5067 77.4766 36.2C77.7699 36.8667 77.9166 37.76 77.9166 38.88V47.76C77.9166 48.8267 78.1699 49.56 78.6766 49.96C79.1832 50.3333 80.1166 50.52 81.4766 50.52C81.5832 50.52 81.6366 50.6 81.6366 50.76C81.6366 50.92 81.5832 51 81.4766 51C80.5432 51 79.8099 50.9867 79.2766 50.96L76.0366 50.92L73.6766 50.96C73.2766 50.9867 72.7299 51 72.0366 51ZM97.9528 51C97.8728 51 97.8328 50.92 97.8328 50.76C97.8328 50.6 97.8728 50.52 97.9528 50.52C98.7795 50.52 99.3395 50.3333 99.6328 49.96C99.9261 49.56 100.073 48.8267 100.073 47.76V42C100.073 40.56 99.8061 39.4933 99.2728 38.8C98.7661 38.1067 97.9528 37.76 96.8328 37.76C96.0061 37.76 95.1661 37.9733 94.3128 38.4C93.4861 38.8 92.8328 39.3333 92.3528 40L92.1528 39.52C93.1128 38.1333 94.1795 37.0533 95.3528 36.28C96.5528 35.48 97.8195 35.08 99.1528 35.08C100.593 35.08 101.726 35.5467 102.553 36.48C103.406 37.3867 103.833 38.5867 103.833 40.08V47.76C103.833 48.8267 103.979 49.56 104.273 49.96C104.593 50.3333 105.166 50.52 105.993 50.52C106.073 50.52 106.113 50.6 106.113 50.76C106.113 50.92 106.073 51 105.993 51C105.299 51 104.753 50.9867 104.353 50.96L101.953 50.92L99.6328 50.96C99.2061 50.9867 98.6461 51 97.9528 51ZM87.1928 51C87.1128 51 87.0728 50.92 87.0728 50.76C87.0728 50.6 87.1128 50.52 87.1928 50.52C88.0195 50.52 88.5795 50.3333 88.8728 49.96C89.1661 49.56 89.3128 48.8267 89.3128 47.76V40.24C89.3128 39.4133 89.2061 38.8133 88.9928 38.44C88.8061 38.04 88.4995 37.84 88.0728 37.84C87.6195 37.84 86.9795 38.0267 86.1528 38.4H86.0728C85.9928 38.4 85.9261 38.3333 85.8728 38.2C85.8461 38.0667 85.8595 37.9867 85.9128 37.96L91.4728 35.24C91.6328 35.1867 91.7261 35.16 91.7528 35.16C92.0728 35.16 92.3661 35.5067 92.6328 36.2C92.9261 36.8667 93.0728 37.76 93.0728 38.88V47.76C93.0728 48.8267 93.2195 49.56 93.5128 49.96C93.8328 50.3333 94.4061 50.52 95.2328 50.52C95.3128 50.52 95.3528 50.6 95.3528 50.76C95.3528 50.92 95.3128 51 95.2328 51C94.5395 51 93.9928 50.9867 93.5928 50.96L91.1928 50.92L88.8328 50.96C88.4328 50.9867 87.8861 51 87.1928 51Z" fill="white"/>
<path d="M61.96 65.04C61.96 66 62.2 66.8533 62.68 67.6C63.1867 68.3467 63.8 69 64.52 69.56C65.24 70.12 66.2133 70.8 67.44 71.6C68.7733 72.4533 69.84 73.2 70.64 73.84C71.44 74.48 72.12 75.2667 72.68 76.2C73.24 77.1067 73.52 78.16 73.52 79.36C73.52 80.7467 73.1467 81.9867 72.4 83.08C71.6533 84.1467 70.6133 84.9867 69.28 85.6C67.9733 86.1867 66.5067 86.48 64.88 86.48C63.7067 86.48 62.4533 86.32 61.12 86C59.8133 85.6533 58.9333 85.28 58.48 84.88C58.3467 84.7733 58.24 84.68 58.16 84.6C58.1067 84.4933 58.08 84.3333 58.08 84.12L57.96 77.76V77.72C57.96 77.6133 58.0267 77.56 58.16 77.56C58.2933 77.5333 58.3733 77.5733 58.4 77.68C59.2 79.3067 59.8933 80.6267 60.48 81.64C61.0933 82.6533 61.8533 83.5467 62.76 84.32C63.6933 85.0933 64.7467 85.48 65.92 85.48C66.9867 85.48 67.8667 85.2 68.56 84.64C69.2533 84.0533 69.6 83.0667 69.6 81.68C69.6 80.5067 69.3333 79.48 68.8 78.6C68.2933 77.72 67.6667 76.9733 66.92 76.36C66.1733 75.7467 65.1467 75.0133 63.84 74.16C62.56 73.3333 61.56 72.6267 60.84 72.04C60.1467 71.4533 59.5467 70.7467 59.04 69.92C58.5333 69.0933 58.28 68.12 58.28 67C58.28 65.5867 58.68 64.4 59.48 63.44C60.3067 62.4533 61.36 61.7333 62.64 61.28C63.92 60.8 65.2667 60.56 66.68 60.56C67.6133 60.56 68.56 60.6533 69.52 60.84C70.48 61 71.2533 61.2 71.84 61.44C72.08 61.5467 72.24 61.6667 72.32 61.8C72.4 61.9067 72.44 62.0533 72.44 62.24V68.12C72.44 68.2 72.3733 68.2667 72.24 68.32C72.1067 68.3467 72.0267 68.32 72 68.24L71.68 67.48C71.0133 65.8 70.2267 64.3733 69.32 63.2C68.44 62.0267 67.2 61.44 65.6 61.44C64.5333 61.44 63.6533 61.7467 62.96 62.36C62.2933 62.9733 61.96 63.8667 61.96 65.04ZM87.9059 86C87.8259 86 87.7859 85.92 87.7859 85.76C87.7859 85.6 87.8259 85.52 87.9059 85.52C88.7326 85.52 89.2926 85.3333 89.5859 84.96C89.8793 84.56 90.0259 83.8267 90.0259 82.76V77C90.0259 75.56 89.7593 74.4933 89.2259 73.8C88.7193 73.1067 87.9059 72.76 86.7859 72.76C85.9593 72.76 85.1193 72.9733 84.2659 73.4C83.4393 73.8 82.7859 74.3333 82.3059 75L82.1059 74.52C83.0659 73.1333 84.1326 72.0533 85.3059 71.28C86.5059 70.48 87.7726 70.08 89.1059 70.08C90.5459 70.08 91.6793 70.5467 92.5059 71.48C93.3593 72.3867 93.7859 73.5867 93.7859 75.08V82.76C93.7859 83.8267 93.9326 84.56 94.2259 84.96C94.5459 85.3333 95.1193 85.52 95.9459 85.52C96.0259 85.52 96.0659 85.6 96.0659 85.76C96.0659 85.92 96.0259 86 95.9459 86C95.2526 86 94.7059 85.9867 94.3059 85.96L91.9059 85.92L89.5859 85.96C89.1593 85.9867 88.5993 86 87.9059 86ZM77.1459 86C77.0659 86 77.0259 85.92 77.0259 85.76C77.0259 85.6 77.0659 85.52 77.1459 85.52C77.9726 85.52 78.5326 85.3333 78.8259 84.96C79.1193 84.56 79.2659 83.8267 79.2659 82.76V75.24C79.2659 74.4133 79.1593 73.8133 78.9459 73.44C78.7593 73.04 78.4526 72.84 78.0259 72.84C77.5726 72.84 76.9326 73.0267 76.1059 73.4H76.0259C75.9459 73.4 75.8793 73.3333 75.8259 73.2C75.7993 73.0667 75.8126 72.9867 75.8659 72.96L81.4259 70.24C81.5859 70.1867 81.6793 70.16 81.7059 70.16C82.0259 70.16 82.3193 70.5067 82.5859 71.2C82.8793 71.8667 83.0259 72.76 83.0259 73.88V82.76C83.0259 83.8267 83.1726 84.56 83.4659 84.96C83.7859 85.3333 84.3593 85.52 85.1859 85.52C85.2659 85.52 85.3059 85.6 85.3059 85.76C85.3059 85.92 85.2659 86 85.1859 86C84.4926 86 83.9459 85.9867 83.5459 85.96L81.1459 85.92L78.7859 85.96C78.3859 85.9867 77.8393 86 77.1459 86ZM109.401 86.24C109.294 86.2933 109.161 86.32 109.001 86.32C108.467 86.32 107.974 85.9867 107.521 85.32C107.067 84.6267 106.841 83.72 106.841 82.6V75.8C106.841 74.0933 106.694 72.8533 106.401 72.08C106.134 71.3067 105.667 70.92 105.001 70.92C103.587 70.92 102.787 72.0133 102.601 74.2C102.521 75 102.281 75.5733 101.881 75.92C101.507 76.2667 100.974 76.44 100.281 76.44C99.614 76.44 99.1206 76.3067 98.8006 76.04C98.5073 75.7467 98.3606 75.3733 98.3606 74.92C98.3606 74.12 98.8273 73.36 99.7606 72.64C100.694 71.8933 101.814 71.2933 103.121 70.84C104.454 70.3867 105.627 70.16 106.641 70.16C107.814 70.16 108.761 70.5333 109.481 71.28C110.227 72 110.601 73.1067 110.601 74.6V81.68C110.601 82.4533 110.734 83.0533 111.001 83.48C111.294 83.9067 111.694 84.12 112.201 84.12C112.574 84.12 112.961 84.0267 113.361 83.84H113.401C113.507 83.84 113.574 83.9067 113.601 84.04C113.654 84.1467 113.627 84.2267 113.521 84.28L109.401 86.24ZM101.721 86.28C100.574 86.28 99.7073 86.0267 99.1206 85.52C98.534 85.0133 98.2406 84.3067 98.2406 83.4C98.2406 82.68 98.414 82.1067 98.7606 81.68C99.1073 81.2267 99.534 80.88 100.041 80.64C100.574 80.3733 101.307 80.08 102.241 79.76L103.241 79.4L107.241 77.92L107.401 78.52L105.121 79.56C105.041 79.5867 104.774 79.6933 104.321 79.88C103.867 80.04 103.467 80.32 103.121 80.72C102.801 81.12 102.641 81.5867 102.641 82.12C102.641 82.76 102.841 83.2667 103.241 83.64C103.667 83.9867 104.147 84.16 104.681 84.16C105.107 84.16 105.547 84.0133 106.001 83.72L108.001 82.36L108.041 83L105.241 85C104.627 85.4533 104.054 85.7867 103.521 86C102.987 86.1867 102.387 86.28 101.721 86.28ZM114.517 97C114.437 97 114.397 96.92 114.397 96.76C114.397 96.6 114.437 96.52 114.517 96.52C115.157 96.52 115.623 96.44 115.917 96.28C116.237 96.1467 116.45 95.8933 116.557 95.52C116.69 95.1467 116.757 94.56 116.757 93.76V75.24C116.757 74.3867 116.663 73.7733 116.477 73.4C116.29 73.0267 115.957 72.84 115.477 72.84C115.05 72.84 114.437 73.0267 113.637 73.4H113.557C113.477 73.4 113.41 73.3333 113.357 73.2C113.277 73.0667 113.263 72.9867 113.317 72.96L118.997 70.2C119.05 70.1733 119.117 70.16 119.197 70.16C119.517 70.16 119.81 70.5067 120.077 71.2C120.343 71.8667 120.477 72.76 120.477 73.88V93.76C120.477 94.56 120.557 95.1467 120.717 95.52C120.903 95.8933 121.237 96.1467 121.717 96.28C122.223 96.44 122.997 96.52 124.037 96.52C124.117 96.52 124.157 96.6 124.157 96.76C124.157 96.92 124.117 97 124.037 97C123.05 97 122.277 96.9867 121.717 96.96L118.557 96.92L116.197 96.96C115.797 96.9867 115.237 97 114.517 97ZM123.917 86.52C122.957 86.52 122.117 86.44 121.397 86.28C120.677 86.1467 119.757 85.8933 118.637 85.52L120.037 83C120.703 83.8267 121.37 84.4533 122.037 84.88C122.73 85.3067 123.61 85.52 124.677 85.52C127.37 85.52 128.717 83.2267 128.717 78.64C128.717 76.6133 128.237 75.0533 127.277 73.96C126.343 72.84 125.17 72.28 123.757 72.28C122.823 72.28 122.01 72.5067 121.317 72.96C120.623 73.3867 119.877 74.0533 119.077 74.96L118.677 74.48C120.037 72.9333 121.33 71.8133 122.557 71.12C123.81 70.4 125.09 70.04 126.397 70.04C127.517 70.04 128.557 70.3333 129.517 70.92C130.503 71.5067 131.29 72.36 131.877 73.48C132.463 74.6 132.757 75.9067 132.757 77.4C132.757 79.5333 132.317 81.2933 131.437 82.68C130.557 84.04 129.437 85.0267 128.077 85.64C126.743 86.2267 125.357 86.52 123.917 86.52Z" fill="white"/>
</svg>
